<?xml version="1.0" encoding="utf-8"?>
<!-- Generator: Adobe Illustrator 14.0.0, SVG Export Plug-In . SVG Version: 6.00 Build 43363)  -->
<!DOCTYPE svg PUBLIC "-//W3C//DTD SVG 1.1//EN" "http://www.w3.org/Graphics/SVG/1.1/DTD/svg11.dtd">
<svg version="1.1" id="Layer_1" xmlns="http://www.w3.org/2000/svg" xmlns:xlink="http://www.w3.org/1999/xlink" x="0px" y="0px"
	 width="320px" height="500px" viewBox="0 0 320 500" enable-background="new 0 0 320 500" xml:space="preserve">
<g>
	<image overflow="visible" width="177" height="209" xlink:href="552C2DEC.png"  transform="matrix(1 0 0 1 40.9326 217.5283)">
	</image>
	<g>
		<path fill="#C9453A" d="M104.732,353.313l17.817-56.289c0.792-5.7,2.897-10.025,6.269-12.904c2.736-2.342,5.996-3.528,9.689-3.528
			c0.561,0,1.141,0.027,1.724,0.081c5.926,0.549,10.116,2.967,12.453,7.185c1.228,2.257,1.829,4.489,1.786,6.64l-7.017-0.648
			c-0.321-1.741-0.819-3.109-1.48-4.069c-0.865-1.245-2.108-2.131-3.694-2.636L142,287.06l-0.351-0.093l-0.514-0.114l-0.664-0.11
			l-0.549-0.062c-0.3-0.027-0.592-0.041-0.878-0.041c-2.421,0-4.487,0.989-6.138,2.941c-1.82,2.148-2.952,5.358-3.364,9.538
			l-0.013,0.125c-0.383,4.151,0.161,7.36,1.614,9.587l0.192,0.279c0.111,0.157,0.177,0.248,0.243,0.336
			c0.073,0.093,0.14,0.178,0.208,0.259c0.117,0.145,0.189,0.227,0.261,0.307l0.26,0.275c0.084,0.088,0.159,0.162,0.236,0.235
			c0.11,0.1,0.173,0.158,0.239,0.214l0.261,0.22c0,0,0.205,0.157,0.28,0.211c0.155,0.111,0.233,0.166,0.313,0.217l0.37,0.227
			c0.073,0.042,0.147,0.085,0.222,0.123c0.114,0.06,0.196,0.101,0.277,0.139l0.342,0.154l0.293,0.116l0.398,0.139l0.064,0.003
			c0.507,0.177,1.129,0.301,1.775,0.36c0.342,0.031,0.675,0.048,1,0.048c2.229,0,4.066-0.757,5.463-2.248
			c0.838-0.873,1.607-2.219,2.284-3.998l6.959,0.643l-17.7,55.924L104.732,353.313z"/>
	</g>
</g>
<g>
	<polygon fill="#D0D2D3" points="79.328,239.777 63.708,300.818 50.453,300.818 34.832,239.777 49.058,239.777 57.11,279.826 
		65.159,239.777 	"/>
	<rect x="86.531" y="239.916" fill="#D0D2D3" width="13.624" height="61.005"/>
	<g>
		<path fill="#D0D2D3" d="M149.3,182.927c14.419,0,37.933-8.139,54.15-17.683c17.352-10.205,37.536-29.085,39.837-32.76
			c-15.917-25.297-27.594-30.214-34.703-31.607c-1.855-0.368-4.396-0.665-7.55-0.665c-8.937,0-22.783,2.398-39.847,12.506
			c-23.097,13.686-19.641,33.074-19.641,33.074l4.897,37.013C147.352,182.89,148.306,182.927,149.3,182.927z"/>
		<path fill="#D0D2D3" d="M149.3,185.617c-1.08,0-2.122-0.045-3.091-0.13l-1.283-0.116c-5.475,9.476-18.433,32.192-17.763,33.94
			c0.768,1.997,17.848,5.748,20.112,5.639c2.267-0.11,23.504-1.373,31.358-22.056c4.855-12.79,8.54-22.203,10.646-27.538
			C174.934,181.526,159.566,185.617,149.3,185.617z"/>
	</g>
</g>
<g>
	<path fill="#D0D2D3" d="M84.857,222.875c0.455,4.342,4.594,7.464,9.247,6.976c4.648-0.484,8.048-4.399,7.598-8.738
		c-0.458-4.341-4.597-7.464-9.246-6.977C87.806,214.622,84.404,218.534,84.857,222.875"/>
	<path fill="#FFFFFF" d="M199.382,288.241c0,4.926-1.782,8.373-5.332,10.329c-2.583,1.404-6.495,2.102-11.741,2.102
		c-1.213,0-2.916-0.04-5.113-0.118c-2.2-0.081-3.791-0.118-4.754-0.118v22.26h-13.863v-82.917h13.863V242
		c3.225-0.478,6.455-0.983,9.689-1.501c4.072-0.641,7.303-0.963,9.68-0.963c5.047,0,7.571,2.464,7.571,7.389V288.241
		L199.382,288.241z M185.454,284.456v-33.212l-13.019,0.24v37.539h8.599C183.98,289.023,185.454,287.504,185.454,284.456"/>
	<path fill="#FFFFFF" d="M248.716,293.35c0,5.049-2.599,7.571-7.807,7.571h-23.913c-5.21,0-7.807-2.522-7.807-7.571v-46.01
		c0-5.041,2.597-7.565,7.807-7.565h23.912c5.209,0,7.808,2.524,7.808,7.565v22.462l-3.815,3.815h-22.455v17.134h13.015v-10.17
		h13.258L248.716,293.35L248.716,293.35z M235.46,249.948h-13.015V264.6h13.015V249.948z"/>
	<path fill="#FFFFFF" d="M285.165,300.921h-15.378c-5.13,0-7.688-2.521-7.688-7.563v-41.774h-6.539v-11.807h6.539v-18.003h13.803
		v18.003h8.896v11.807h-8.896v37.533h9.267v11.807L285.165,300.921L285.165,300.921z"/>
	<path fill="#FFFFFF" d="M110.767,140.544c0.215,1.389,1.587,2.332,3.079,2.106c1.487-0.227,2.523-1.535,2.312-2.925
		c-0.21-1.39-1.586-2.332-3.077-2.106C111.594,137.846,110.557,139.154,110.767,140.544"/>
	<path fill="#FFFFFF" d="M117.295,211.439c0.125,1.398,1.439,2.424,2.94,2.289c1.501-0.133,2.616-1.379,2.489-2.779
		c-0.126-1.396-1.442-2.423-2.943-2.287C118.281,208.793,117.167,210.039,117.295,211.439"/>
	<path fill="#FFFFFF" d="M90.838,178.342c0.388,2.224,2.637,3.686,5.021,3.268c2.38-0.418,3.996-2.564,3.608-4.789
		c-0.397-2.222-2.643-3.687-5.027-3.263C92.056,173.973,90.441,176.121,90.838,178.342"/>
	<path fill="#FFFFFF" d="M103.5,194.942c0.707,3.999,4.754,6.634,9.044,5.877c4.289-0.753,7.186-4.606,6.486-8.611
		c-0.707-4-4.751-6.63-9.034-5.874C105.704,187.086,102.799,190.943,103.5,194.942"/>
	<path fill="#FFFFFF" d="M107.516,165.336c0.871,4.954,5.882,8.213,11.188,7.276c5.309-0.935,8.908-5.708,8.036-10.662
		c-0.87-4.954-5.885-8.211-11.192-7.277C110.241,155.606,106.643,160.382,107.516,165.336"/>
	<path fill="#FFFFFF" d="M76.826,148.933c0.913,6.007,6.873,10.085,13.305,9.111c6.437-0.979,10.918-6.64,10.009-12.646
		c-0.912-6.004-6.868-10.085-13.302-9.106C80.401,137.265,75.915,142.923,76.826,148.933"/>
	<path fill="#FFFFFF" d="M89.468,112.427c1.075,7.117,8.14,11.948,15.764,10.792c7.627-1.154,12.936-7.856,11.856-14.979
		c-1.081-7.115-8.14-11.946-15.765-10.789C93.698,98.604,88.392,105.308,89.468,112.427"/>
</g>
<g>
	<g>
		<path fill="none" d="M132.982,289.613c-0.234,0.278-0.455,0.576-0.665,0.89h3.31v-3.005
			C134.656,287.977,133.771,288.673,132.982,289.613z"/>
		<path fill="#D0D2D3" d="M145.633,289.732c-0.839-1.194-2.025-2.033-3.566-2.515c-0.01-0.003-0.021-0.007-0.031-0.011
			c-0.006,0-0.01-0.003-0.014-0.004c-0.018-0.006-0.035-0.009-0.053-0.015c-0.057-0.017-0.113-0.035-0.172-0.052
			c-0.029-0.007-0.059-0.017-0.086-0.023c-0.055-0.015-0.109-0.029-0.165-0.043c-0.028-0.008-0.058-0.016-0.087-0.021
			c-0.061-0.016-0.122-0.029-0.184-0.045c-0.023-0.005-0.047-0.009-0.07-0.014c-0.084-0.019-0.168-0.037-0.256-0.054
			c-0.018-0.003-0.035-0.006-0.053-0.01c-0.068-0.012-0.139-0.024-0.211-0.036c-0.031-0.004-0.06-0.009-0.09-0.014
			c-0.059-0.009-0.121-0.02-0.182-0.027c-0.033-0.004-0.064-0.01-0.098-0.013c-0.062-0.009-0.127-0.018-0.191-0.024
			c-0.027-0.004-0.057-0.008-0.086-0.011c-0.092-0.009-0.187-0.02-0.281-0.026c-1.525-0.135-2.898,0.115-4.13,0.723v3.005h-3.31
			c-1.397,2.083-2.266,4.931-2.607,8.542c-0.006,0.062-0.01,0.119-0.016,0.18c-0.052,0.586-0.08,1.147-0.094,1.694h11.6
			c4.873,0,7.425-2.284,7.665-6.843l-1.735-0.152C146.811,292.104,146.311,290.705,145.633,289.732z"/>
		<path fill="#D0D2D3" d="M122.09,296.854c0.315-2.354,0.863-4.463,1.621-6.352h-0.249v-10.289h-13.26v13.142
			c0,5.043,2.565,7.563,7.688,7.563h2.931l1.267-4.065L122.09,296.854z"/>
		<path fill="#D0D2D3" d="M140.098,280.137c3.563,0.313,6.481,1.298,8.792,2.913v-4.833c0-2.904-1.411-5.166-4.239-6.781
			l-21.188-12.408v-8.836h12.166v9.443h13.139V247.34c0-5.041-2.563-7.565-7.687-7.565h-23.069c-5.206,0-7.81,2.524-7.81,7.565
			v14.29c0,2.782,1.396,5.002,4.18,6.657l20.584,12.145C136.572,280.082,138.28,279.977,140.098,280.137z"/>
		<g>
			<path fill="#C9453A" d="M150.158,306.957l-0.188,0.512c-0.893,2.453-1.945,4.3-3.215,5.641c-1.721,1.844-4.814,3.938-9.799,3.502
				c-0.932-0.085-1.838-0.26-2.693-0.526c-1.363-0.424-2.623-1.085-3.743-1.959c-1.077-0.843-2.033-1.892-2.844-3.12
				c-1.051-1.59-1.771-3.489-2.145-5.643c-0.233-1.354-0.325-2.847-0.291-4.444h-4.421l-16.475,52.864l31.42,9.791l17.1-54.871
				l0.64-2.05l-3.286-0.289l-0.008,0.052L150.158,306.957z"/>
		</g>
		<g>
			<path fill="#C9453A" d="M129.641,286.811c1.342-1.6,2.919-2.788,4.691-3.529c0.422-0.177,0.855-0.323,1.296-0.449v-2.01
				l-0.663-0.391c-2.417,0.524-4.602,1.613-6.543,3.29c-2.046,1.763-3.608,4.031-4.711,6.781h3.647
				C127.985,289.115,128.747,287.874,129.641,286.811z"/>
		</g>
		<g>
			<path fill="#C9453A" d="M149.17,287.217l0.005,0.006l0.003,0.007c1.053,1.512,1.779,3.452,2.213,5.927l0.106,0.596l-0.056,0.551
				l3.293,0.289c0.102-2.325-0.516-4.706-1.855-7.141c-1.009-1.801-2.351-3.255-3.99-4.401v3.801
				C148.983,286.973,149.081,287.09,149.17,287.217z"/>
		</g>
		<g>
			<path fill="#C9453A" d="M125.35,298.853c0.006-0.064,0.012-0.142,0.02-0.23c0.229-2.409,0.676-4.589,1.332-6.48
				c0.197-0.569,0.419-1.112,0.657-1.639h-3.647c-0.758,1.889-1.306,3.997-1.621,6.352l-0.002-0.001l-1.267,4.065h4.421
				C125.256,300.247,125.287,299.562,125.35,298.853z"/>
		</g>
		<g>
			<path fill="#D0D2D3" d="M135.628,282.832c1.421-0.403,2.932-0.543,4.513-0.402c1.129,0.099,2.2,0.304,3.18,0.607
				c2.321,0.725,4.187,2.012,5.569,3.813v-3.801c-2.311-1.615-5.229-2.6-8.792-2.913c-1.817-0.16-3.525-0.055-5.132,0.295
				l0.663,0.391V282.832z"/>
		</g>
		<path fill="#D0D2D3" d="M132.982,289.613c0.788-0.94,1.674-1.637,2.646-2.115v-4.666c-0.44,0.126-0.874,0.272-1.296,0.449
			c-1.772,0.741-3.35,1.93-4.691,3.529c-0.894,1.063-1.656,2.305-2.283,3.692h4.96C132.528,290.189,132.749,289.892,132.982,289.613
			z"/>
		<path fill="#D0D2D3" d="M151.391,293.156c-0.434-2.475-1.16-4.415-2.213-5.927l-0.003-0.007l-0.005-0.006
			c-0.089-0.127-0.187-0.244-0.281-0.366v6.505c0,0.248-0.011,0.485-0.023,0.721l2.576,0.227l0.056-0.551L151.391,293.156z"/>
		<path fill="#D0D2D3" d="M125.242,300.919c-0.035,1.598,0.058,3.09,0.291,4.444c0.374,2.153,1.094,4.053,2.145,5.643
			c0.811,1.229,1.767,2.277,2.844,3.12c1.12,0.874,2.38,1.535,3.743,1.959c0.855,0.267,1.762,0.441,2.693,0.526
			c4.984,0.437,8.078-1.658,9.799-3.502c1.27-1.341,2.322-3.188,3.215-5.641l0.188-0.512l0.053-0.541l0.008-0.052l-4.312-0.377
			c-0.682,1.872-1.447,3.252-2.295,4.142c-1.541,1.661-3.62,2.377-6.238,2.146c-0.631-0.055-1.229-0.173-1.795-0.348
			c-0.004-0.003-0.012-0.005-0.018-0.006c-0.004-0.003-0.008-0.004-0.012-0.006c-0.096-0.027-0.189-0.061-0.281-0.094
			c-0.021-0.008-0.044-0.016-0.066-0.023c-0.081-0.031-0.161-0.061-0.24-0.095c-0.014-0.005-0.029-0.011-0.043-0.017
			c-0.09-0.037-0.18-0.077-0.268-0.117c-0.021-0.01-0.043-0.02-0.065-0.03c-0.076-0.037-0.155-0.077-0.231-0.115
			c-0.012-0.006-0.025-0.013-0.037-0.02c-0.086-0.046-0.171-0.091-0.256-0.14c-0.021-0.013-0.04-0.025-0.061-0.036
			c-0.077-0.045-0.15-0.092-0.225-0.138c-0.012-0.008-0.021-0.014-0.031-0.02c-0.082-0.055-0.162-0.109-0.242-0.165
			c-0.02-0.015-0.041-0.03-0.06-0.044c-0.071-0.052-0.146-0.105-0.216-0.159c-0.01-0.006-0.018-0.014-0.029-0.021
			c-0.074-0.061-0.152-0.124-0.227-0.188c-0.019-0.016-0.039-0.034-0.057-0.049c-0.07-0.061-0.141-0.123-0.207-0.186
			c-0.008-0.007-0.016-0.012-0.021-0.02c-0.072-0.068-0.145-0.138-0.217-0.21c-0.018-0.018-0.035-0.037-0.053-0.056
			c-0.068-0.069-0.137-0.139-0.201-0.213c-0.006-0.004-0.009-0.009-0.014-0.014c-0.07-0.075-0.139-0.156-0.206-0.236
			c-0.017-0.02-0.034-0.04-0.05-0.061c-0.064-0.079-0.131-0.159-0.195-0.24c0-0.004-0.003-0.007-0.006-0.009
			c-0.066-0.085-0.129-0.172-0.191-0.261c-0.018-0.021-0.033-0.044-0.049-0.066c-0.064-0.09-0.127-0.18-0.188-0.273
			c-1.233-1.868-1.801-4.434-1.715-7.685H125.242z"/>
		<path fill="#D0D2D3" d="M129.711,299.045c0.341-3.611,1.209-6.459,2.607-8.542h-4.96c-0.238,0.526-0.46,1.069-0.657,1.639
			c-0.656,1.892-1.104,4.071-1.332,6.48c-0.008,0.089-0.014,0.166-0.02,0.23c-0.062,0.71-0.093,1.395-0.108,2.066h4.36
			c0.014-0.547,0.042-1.108,0.094-1.694C129.701,299.164,129.705,299.106,129.711,299.045z"/>
		<path fill="#D0D2D3" d="M148.889,286.851c-1.382-1.802-3.248-3.089-5.569-3.813c-0.979-0.304-2.051-0.509-3.18-0.607
			c-1.581-0.141-3.092-0.001-4.513,0.402v4.666c1.231-0.607,2.604-0.857,4.13-0.723c0.095,0.007,0.189,0.018,0.281,0.026
			c0.029,0.003,0.059,0.007,0.086,0.011c0.064,0.007,0.129,0.016,0.191,0.024c0.033,0.003,0.064,0.009,0.098,0.013
			c0.061,0.008,0.123,0.019,0.182,0.027c0.03,0.005,0.059,0.01,0.09,0.014c0.072,0.012,0.143,0.024,0.211,0.036
			c0.018,0.004,0.035,0.007,0.053,0.01c0.088,0.017,0.172,0.035,0.256,0.054c0.023,0.005,0.047,0.009,0.07,0.014
			c0.062,0.016,0.123,0.029,0.184,0.045c0.029,0.006,0.059,0.014,0.087,0.021c0.056,0.014,0.11,0.028,0.165,0.043
			c0.027,0.007,0.057,0.017,0.086,0.023c0.059,0.017,0.115,0.035,0.172,0.052c0.018,0.006,0.035,0.009,0.053,0.015
			c0.004,0.001,0.008,0.004,0.014,0.004c0.011,0.004,0.021,0.008,0.031,0.011c1.541,0.481,2.728,1.32,3.566,2.515
			c0.678,0.973,1.178,2.371,1.498,4.191l1.735,0.152c0.012-0.235,0.023-0.473,0.023-0.721V286.851z"/>
	</g>
	<g>
		
			<rect x="118.977" y="349.251" transform="matrix(0.9547 0.2975 -0.2975 0.9547 109.8219 -19.9633)" fill="#D0D2D3" width="3.02" height="3.021"/>
		<g>
			<g>
				<polygon fill="#C9453A" points="119.719,350.802 119.422,351.283 119.309,351.247 119.338,350.683 119.459,350.721 
					119.421,351.084 119.596,350.765 				"/>
				
					<rect x="119.695" y="350.826" transform="matrix(-0.9533 -0.3019 0.3019 -0.9533 127.9309 721.9721)" fill="#C9453A" width="0.123" height="0.547"/>
				<path fill="#C9453A" d="M120.17,351.445c-0.014,0.043-0.042,0.059-0.086,0.044l-0.198-0.062
					c-0.046-0.014-0.06-0.044-0.048-0.086l0.037-0.111l0.112,0.034l-0.027,0.089l0.104,0.032l0.024-0.083l-0.147-0.164
					c-0.02-0.021-0.026-0.043-0.018-0.068l0.038-0.122c0.013-0.043,0.042-0.057,0.087-0.043l0.197,0.062
					c0.043,0.014,0.059,0.041,0.045,0.084l-0.032,0.105l-0.112-0.036l0.025-0.08l-0.104-0.032l-0.025,0.076l0.149,0.163
					c0.019,0.021,0.024,0.043,0.019,0.068L120.17,351.445L120.17,351.445z"/>
				<g>
					<path fill="#C9453A" d="M120.467,350.502c0.123,0.038,0.346,0.032,0.512-0.007c0.174-0.041,0.397-0.148,0.428-0.174
						c-0.07-0.259-0.156-0.333-0.213-0.363c-0.016-0.007-0.037-0.017-0.062-0.026c-0.076-0.023-0.201-0.039-0.375,0.001
						c-0.234,0.055-0.256,0.229-0.256,0.229l-0.057,0.331C120.451,350.496,120.459,350.498,120.467,350.502z"/>
					<path fill="#C9453A" d="M120.461,350.524c-0.01-0.003-0.02-0.006-0.025-0.009l-0.012-0.005
						c-0.072,0.067-0.244,0.228-0.244,0.244c0.002,0.019,0.139,0.096,0.158,0.102c0.018,0.006,0.205,0.052,0.326-0.105
						c0.076-0.097,0.133-0.166,0.166-0.208C120.689,350.559,120.548,350.553,120.461,350.524z"/>
				</g>
			</g>
			<g>
				<path fill="#C9453A" d="M119.811,350.672c-0.008,0.038,0.02,0.076,0.061,0.086c0.039,0.007,0.08-0.018,0.088-0.057
					c0.008-0.038-0.02-0.075-0.061-0.084C119.857,350.609,119.818,350.633,119.811,350.672"/>
				<path fill="#FFFFFF" d="M120.615,351.537c-0.014,0.041-0.039,0.066-0.074,0.073c-0.025,0.005-0.061-0.001-0.105-0.016
					c-0.01-0.002-0.023-0.005-0.043-0.012c-0.019-0.007-0.032-0.012-0.039-0.015l-0.061,0.19l-0.119-0.036l0.221-0.709l0.119,0.036
					l-0.006,0.019c0.028,0.003,0.057,0.011,0.088,0.013c0.035,0.005,0.064,0.012,0.084,0.019c0.045,0.012,0.059,0.041,0.045,0.084
					L120.615,351.537L120.615,351.537z M120.506,351.467l0.09-0.285l-0.113-0.031l-0.1,0.321l0.073,0.022
					C120.48,351.504,120.5,351.493,120.506,351.467"/>
				<path fill="#FFFFFF" d="M121.023,351.71c-0.016,0.044-0.043,0.06-0.088,0.045l-0.203-0.064
					c-0.045-0.014-0.061-0.042-0.047-0.085l0.123-0.394c0.014-0.042,0.042-0.058,0.086-0.042l0.204,0.062
					c0.044,0.015,0.06,0.043,0.048,0.086l-0.061,0.192l-0.045,0.021l-0.189-0.061l-0.045,0.146l0.11,0.034l0.027-0.087l0.112,0.036
					L121.023,351.71L121.023,351.71z M121.025,351.305l-0.111-0.035l-0.039,0.124l0.111,0.036L121.025,351.305z"/>
				<path fill="#FFFFFF" d="M121.316,351.875l-0.133-0.042c-0.045-0.015-0.059-0.044-0.045-0.087l0.111-0.356l-0.059-0.018
					l0.033-0.102l0.055,0.019l0.049-0.153l0.118,0.036l-0.049,0.153l0.077,0.023l-0.032,0.102l-0.075-0.024l-0.102,0.321
					l0.082,0.024L121.316,351.875L121.316,351.875z"/>
				<path fill="#FFFFFF" d="M120.252,350.036c-0.004,0.013,0.006,0.025,0.02,0.026c0.014,0.002,0.025-0.006,0.027-0.018
					c0.002-0.014-0.007-0.025-0.021-0.025C120.266,350.017,120.254,350.025,120.252,350.036"/>
				<path fill="#FFFFFF" d="M120.117,350.66c-0.002,0.014,0.006,0.024,0.02,0.028c0.014,0.003,0.027-0.005,0.029-0.019
					c0.002-0.011-0.006-0.024-0.02-0.026C120.133,350.641,120.121,350.649,120.117,350.66"/>
				<path fill="#FFFFFF" d="M119.98,350.307c-0.002,0.02,0.012,0.039,0.033,0.043c0.023,0.001,0.041-0.013,0.045-0.032
					c0.002-0.021-0.014-0.038-0.035-0.041C120.002,350.274,119.982,350.287,119.98,350.307"/>
				<path fill="#FFFFFF" d="M120.044,350.482c-0.005,0.036,0.024,0.07,0.062,0.074c0.037,0.006,0.074-0.02,0.078-0.058
					c0.004-0.035-0.023-0.066-0.061-0.072C120.084,350.423,120.051,350.447,120.044,350.482"/>
				<path fill="#FFFFFF" d="M120.156,350.241c-0.004,0.044,0.029,0.085,0.078,0.091c0.047,0.008,0.09-0.025,0.096-0.069
					c0.006-0.046-0.029-0.085-0.076-0.092C120.205,350.165,120.162,350.193,120.156,350.241"/>
				<path fill="#FFFFFF" d="M119.938,350.018c-0.006,0.055,0.033,0.104,0.092,0.115c0.055,0.008,0.109-0.03,0.118-0.081
					c0.007-0.056-0.03-0.106-0.091-0.116C120,349.928,119.945,349.965,119.938,350.018"/>
				<path fill="#FFFFFF" d="M120.145,349.74c-0.01,0.062,0.037,0.121,0.105,0.133s0.131-0.031,0.142-0.096
					c0.009-0.064-0.038-0.123-0.104-0.135C120.217,349.634,120.154,349.676,120.145,349.74"/>
			</g>
		</g>
	</g>
	<g>
		<path fill="#FFFFFF" d="M121.371,325.305c-0.395,1.091-1.094,1.658-1.967,1.581c-1-0.084-1.33-0.89-0.809-2.611
			c0.521-1.72,1.312-2.429,2.311-2.343c0.992,0.083,1.192,0.812,0.954,1.598l-0.437-0.037c0.197-0.653,0.001-1.143-0.629-1.199
			c-0.695-0.059-1.291,0.47-1.762,2.021c-0.472,1.55-0.217,2.151,0.48,2.211c0.615,0.051,1.121-0.435,1.419-1.256L121.371,325.305z"
			/>
		<path fill="#FFFFFF" d="M124.531,324.79l-1.91-0.164l-0.725,2.391l-0.438-0.038l1.453-4.793l0.439,0.037l-0.619,2.041l1.907,0.164
			l0.62-2.042l0.437,0.036l-1.454,4.795l-0.439-0.036L124.531,324.79z"/>
		<path fill="#FFFFFF" d="M126.49,322.491l0.438,0.036l-1.455,4.795l-0.438-0.036L126.49,322.491z"/>
		<path fill="#FFFFFF" d="M127.721,322.596l2.422,0.206l-0.109,0.363l-1.984-0.17l-0.529,1.746l1.854,0.159l-0.111,0.361
			l-1.854-0.158l-0.594,1.962l2.045,0.175l-0.11,0.361l-2.483-0.211L127.721,322.596z"/>
		<path fill="#FFFFFF" d="M135.348,308.13l0.438,0.038l-5.936,19.156l2.025,0.174l-0.109,0.361l-2.463-0.21L135.348,308.13z"/>
		<path fill="#FFFFFF" d="M119.598,331.021c-0.395,1.09-1.092,1.656-1.967,1.582c-1-0.084-1.33-0.893-0.809-2.611
			c0.523-1.719,1.313-2.431,2.312-2.345c0.992,0.085,1.191,0.811,0.953,1.598l-0.438-0.037c0.198-0.651,0.002-1.145-0.626-1.198
			c-0.698-0.06-1.294,0.469-1.765,2.019c-0.469,1.552-0.217,2.152,0.48,2.212c0.615,0.054,1.12-0.436,1.42-1.256L119.598,331.021z"
			/>
		<path fill="#FFFFFF" d="M122.758,330.506l-1.909-0.162l-0.726,2.391l-0.438-0.037l1.454-4.795l0.438,0.037l-0.619,2.042
			l1.908,0.162l0.619-2.041l0.438,0.036l-1.455,4.795l-0.436-0.037L122.758,330.506z"/>
		<path fill="#FFFFFF" d="M124.717,328.207l0.438,0.037l-1.453,4.795l-0.439-0.037L124.717,328.207z"/>
		<path fill="#FFFFFF" d="M125.947,328.312l2.422,0.207l-0.109,0.363l-1.983-0.171l-0.53,1.748l1.854,0.157l-0.109,0.363
			l-1.854-0.158l-0.596,1.96l2.045,0.176l-0.109,0.362l-2.482-0.213L125.947,328.312z"/>
		<path fill="#FFFFFF" d="M128.984,328.572l0.438,0.036l-1.344,4.433l2.023,0.172l-0.11,0.363l-2.46-0.211L128.984,328.572z"/>
		<path fill="#FFFFFF" d="M131.898,328.821l2.42,0.206l-0.108,0.361l-1.985-0.168l-0.528,1.745l1.854,0.159l-0.11,0.361
			l-1.854-0.158l-0.594,1.962l2.043,0.173l-0.109,0.364l-2.482-0.212L131.898,328.821z"/>
		<path fill="#FFFFFF" d="M134.934,329.079l0.59,0.05l0.6,4.337l0.014,0.001l1.266-4.176l0.438,0.037l-1.453,4.794l-0.59-0.05
			l-0.6-4.336l-0.012-0.002l-1.269,4.177l-0.437-0.038L134.934,329.079z"/>
		<path fill="#FFFFFF" d="M140.375,330.805c0.179-0.59,0.006-0.97-0.588-1.021c-0.596-0.052-1.039,0.305-1.186,0.781
			c-0.432,1.43,2.172,0.846,1.66,2.531c-0.281,0.928-1.014,1.354-1.902,1.277c-0.918-0.076-1.276-0.604-0.992-1.545l0.045-0.141
			l0.436,0.037l-0.055,0.183c-0.186,0.609,0.018,1.047,0.662,1.103c0.615,0.054,1.145-0.212,1.348-0.885
			c0.432-1.422-2.18-0.812-1.652-2.551c0.229-0.752,0.883-1.227,1.732-1.154c0.91,0.076,1.189,0.568,0.93,1.422L140.375,330.805z"/>
	</g>
	<g>
		<path fill="#D0D2D3" d="M123.359,336.547l0.871,0.271l-0.029,0.098l-0.765-0.24l-0.228,0.729l0.713,0.222l-0.029,0.097
			l-0.713-0.222l-0.252,0.805l0.787,0.244l-0.029,0.099l-0.895-0.279L123.359,336.547z"/>
		<path fill="#D0D2D3" d="M124.512,336.906l0.871,0.271l-0.031,0.097l-0.764-0.237l-0.227,0.729l0.713,0.221l-0.029,0.097
			l-0.713-0.222l-0.25,0.805l0.785,0.245l-0.03,0.097l-0.894-0.279L124.512,336.906z"/>
		<path fill="#D0D2D3" d="M125.789,337.303l0.277,1.903l0.007,0.002l0.515-1.656l0.107,0.034l-0.568,1.823l-0.141-0.044
			l-0.282-1.903l-0.005-0.001l-0.515,1.655l-0.106-0.034l0.568-1.822L125.789,337.303z"/>
		<path fill="#D0D2D3" d="M127.855,337.947l0.277,1.902l0.006,0.002l0.516-1.655l0.105,0.034l-0.566,1.822l-0.141-0.044l-0.28-1.901
			l-0.007-0.002l-0.514,1.655l-0.109-0.035l0.568-1.822L127.855,337.947z"/>
		<path fill="#D0D2D3" d="M129.529,339.848l-0.688-0.212l-0.35,0.511l-0.107-0.034l1.135-1.646l0.137,0.042l-0.023,1.994
			l-0.105-0.035L129.529,339.848z M129.553,338.594l-0.004-0.001l-0.654,0.964l0.641,0.198L129.553,338.594z"/>
		<path fill="#D0D2D3" d="M130.821,340.25l-0.687-0.214l-0.35,0.513l-0.109-0.032l1.137-1.646l0.133,0.041l-0.02,1.992l-0.109-0.033
			L130.821,340.25z M130.844,338.997l-0.004-0.001l-0.652,0.963l0.639,0.199L130.844,338.997z"/>
		<path fill="#D0D2D3" d="M132.914,339.676l-0.006-0.002l-1.047,1.523l-0.107-0.034v-1.849h-0.004l-0.526,1.685l-0.106-0.035
			l0.568-1.822l0.174,0.054l0.008,1.802l0.005,0.002l1.017-1.482l0.176,0.056l-0.567,1.822l-0.108-0.033L132.914,339.676z"/>
		<path fill="#D0D2D3" d="M122.582,339.042l0.871,0.271l-0.029,0.099l-0.766-0.239l-0.227,0.729l0.713,0.221l-0.031,0.099
			l-0.711-0.222l-0.251,0.804l0.787,0.245l-0.03,0.097l-0.895-0.277L122.582,339.042z"/>
		<path fill="#D0D2D3" d="M123.859,339.44l0.277,1.901l0.006,0.002l0.516-1.654l0.107,0.033l-0.568,1.822l-0.141-0.043l-0.281-1.902
			l-0.005-0.001l-0.515,1.653l-0.107-0.033l0.568-1.822L123.859,339.44z"/>
		<path fill="#D0D2D3" d="M126.566,340.858c0.076-0.243,0.016-0.508-0.252-0.592c-0.363-0.113-0.59,0.19-0.75,0.703
			c-0.152,0.491-0.168,0.89,0.201,1.005c0.352,0.109,0.564-0.279,0.609-0.422l0.107,0.033c-0.066,0.213-0.308,0.61-0.764,0.469
			c-0.395-0.124-0.445-0.522-0.262-1.113c0.18-0.572,0.455-0.895,0.879-0.763c0.426,0.133,0.393,0.534,0.338,0.713L126.566,340.858z
			"/>
		<path fill="#D0D2D3" d="M126.988,340.415l0.107,0.033l-0.077,1.844l0.005,0.002l0.986-1.56l0.105,0.033l-1.066,1.668l-0.131-0.041
			L126.988,340.415z"/>
		<path fill="#D0D2D3" d="M121.805,341.538l0.416,0.129c0.385,0.12,0.604,0.368,0.371,1.118c-0.232,0.746-0.596,0.814-0.939,0.707
			l-0.418-0.13L121.805,341.538z M121.68,343.405c0.389,0.12,0.632-0.096,0.807-0.654c0.174-0.559,0.125-0.865-0.293-0.997
			l-0.309-0.096l-0.516,1.651L121.68,343.405z"/>
		<path fill="#D0D2D3" d="M123.604,343.479l-0.687-0.215l-0.351,0.513l-0.107-0.033l1.135-1.647l0.137,0.042l-0.023,1.995
			l-0.106-0.033L123.604,343.479z M123.627,342.224l-0.005-0.003l-0.653,0.965l0.643,0.199L123.627,342.224z"/>
		<path fill="#D0D2D3" d="M124.65,342.532l-0.486-0.151l0.031-0.098l1.076,0.336l-0.029,0.098l-0.486-0.152l-0.537,1.727
			l-0.107-0.032L124.65,342.532z"/>
		<path fill="#D0D2D3" d="M126.175,342.899l0.489,0.153c0.357,0.112,0.42,0.333,0.336,0.604c-0.074,0.246-0.256,0.341-0.465,0.305
			l-0.002,0.005c0.26,0.1,0.33,0.333,0.255,0.581c-0.097,0.307-0.356,0.434-0.677,0.336l-0.506-0.159L126.175,342.899z
			 M126.373,343.866c0.234,0.075,0.439,0.015,0.52-0.243c0.078-0.247-0.008-0.406-0.242-0.479l-0.396-0.124l-0.23,0.739
			L126.373,343.866z M126.1,344.783c0.297,0.091,0.486,0.031,0.579-0.27c0.104-0.326-0.067-0.476-0.325-0.558l-0.357-0.11
			l-0.256,0.824L126.1,344.783z"/>
		<path fill="#D0D2D3" d="M127.514,343.318l0.107,0.032l-0.537,1.728l0.764,0.238l-0.029,0.098l-0.871-0.272L127.514,343.318z"/>
		<path fill="#D0D2D3" d="M128.666,343.678l0.107,0.033l-0.568,1.824l-0.105-0.033L128.666,343.678z"/>
		<path fill="#D0D2D3" d="M128.742,345.179c-0.09,0.284-0.025,0.452,0.166,0.515c0.158,0.048,0.336,0.015,0.424-0.266l0.438-1.407
			l0.107,0.032l-0.438,1.408c-0.098,0.304-0.309,0.395-0.551,0.318c-0.324-0.1-0.344-0.348-0.248-0.649l0.012-0.041l0.107,0.033
			L128.742,345.179z"/>
		<path fill="#D0D2D3" d="M130.253,344.17l0.872,0.273l-0.029,0.097l-0.766-0.238l-0.227,0.728l0.711,0.223l-0.029,0.098
			l-0.713-0.224l-0.279,0.902l-0.109-0.033L130.253,344.17z"/>
		<path fill="#D0D2D3" d="M131.66,344.717l-0.486-0.15l0.031-0.098l1.078,0.334l-0.029,0.1l-0.486-0.152l-0.539,1.726l-0.106-0.033
			L131.66,344.717z"/>
		<path fill="#D0D2D3" d="M121.027,344.034l0.105,0.033l-0.249,0.8l0.8,0.248l0.25-0.799l0.107,0.035l-0.568,1.821l-0.107-0.032
			l0.289-0.928l-0.801-0.249l-0.288,0.927l-0.106-0.033L121.027,344.034z"/>
		<path fill="#D0D2D3" d="M122.826,345.975l-0.688-0.214l-0.35,0.511l-0.107-0.033l1.135-1.646l0.136,0.043l-0.022,1.993
			l-0.107-0.032L122.826,345.975z M122.85,344.72l-0.004-0.002l-0.654,0.963l0.641,0.199L122.85,344.72z"/>
		<path fill="#D0D2D3" d="M123.834,344.908l0.277,1.902l0.006,0.001l0.514-1.653l0.109,0.033l-0.569,1.822l-0.141-0.042
			l-0.282-1.903l-0.004-0.002l-0.514,1.654l-0.109-0.033l0.568-1.822L123.834,344.908z"/>
		<path fill="#D0D2D3" d="M125.629,347.064l-0.004-0.001c-0.139,0.229-0.348,0.33-0.604,0.249c-0.401-0.125-0.452-0.523-0.268-1.112
			c0.179-0.573,0.456-0.896,0.878-0.765c0.428,0.135,0.395,0.535,0.34,0.714l-0.105-0.035c0.074-0.245,0.014-0.506-0.256-0.589
			c-0.361-0.113-0.588,0.189-0.746,0.702c-0.155,0.489-0.17,0.888,0.199,1.004c0.344,0.107,0.553-0.195,0.652-0.517l0.035-0.115
			l-0.5-0.154l0.027-0.085l0.609,0.19l-0.285,0.909l-0.086-0.025L125.629,347.064z"/>
		<path fill="#D0D2D3" d="M126.484,345.736l0.873,0.272l-0.031,0.096l-0.764-0.237l-0.227,0.729l0.711,0.222l-0.029,0.096
			l-0.712-0.222l-0.251,0.804l0.787,0.245l-0.029,0.098l-0.895-0.278L126.484,345.736z"/>
		<path fill="#D0D2D3" d="M127.764,346.134l0.279,1.903l0.004,0.002l0.516-1.654l0.107,0.033l-0.568,1.822l-0.141-0.045
			l-0.281-1.901l-0.004-0.003l-0.518,1.656l-0.105-0.033l0.568-1.824L127.764,346.134z"/>
	</g>
	<g>
		<path fill="#FFFFFF" d="M123.631,350.661c0.045-0.144,0.01-0.298-0.146-0.346c-0.213-0.065-0.346,0.108-0.439,0.41
			c-0.089,0.288-0.098,0.521,0.117,0.588c0.206,0.064,0.33-0.161,0.358-0.246l0.062,0.021c-0.038,0.125-0.179,0.358-0.445,0.273
			c-0.232-0.07-0.264-0.307-0.154-0.652c0.104-0.334,0.265-0.523,0.514-0.445c0.25,0.078,0.232,0.312,0.199,0.418L123.631,350.661z"
			/>
		<path fill="#FFFFFF" d="M123.879,350.402l0.062,0.021l-0.044,1.078l0.003,0.001l0.576-0.913l0.062,0.02l-0.625,0.978l-0.076-0.023
			L123.879,350.402z"/>
		<path fill="#FFFFFF" d="M125.066,350.771l0.51,0.16l-0.02,0.057l-0.445-0.139l-0.133,0.424l0.416,0.132l-0.017,0.058l-0.417-0.133
			l-0.146,0.473l0.461,0.144l-0.02,0.057l-0.521-0.164L125.066,350.771z"/>
		<path fill="#FFFFFF" d="M125.814,351.006l0.164,1.113l0.001,0.002l0.302-0.971l0.062,0.021l-0.333,1.066l-0.083-0.024
			l-0.162-1.115l-0.004-0.002l-0.302,0.969l-0.063-0.019l0.334-1.067L125.814,351.006z"/>
		<path fill="#FFFFFF" d="M126.949,351.359l0.277,0.086c0.248,0.082,0.234,0.271,0.199,0.387c-0.057,0.181-0.205,0.261-0.396,0.201
			l-0.202-0.061l-0.147,0.475l-0.062-0.021L126.949,351.359z M127.051,351.986c0.127,0.039,0.256,0.002,0.312-0.172
			c0.045-0.154-0.006-0.273-0.15-0.317l-0.215-0.067l-0.152,0.492L127.051,351.986z"/>
		<path fill="#FFFFFF" d="M128.169,352.324c-0.146,0.469-0.365,0.492-0.517,0.445c-0.205-0.064-0.303-0.246-0.174-0.659
			c0.129-0.414,0.322-0.505,0.518-0.445C128.209,351.732,128.297,351.912,128.169,352.324z M127.542,352.131
			c-0.093,0.292-0.095,0.518,0.126,0.588c0.196,0.062,0.332-0.074,0.438-0.412c0.09-0.289,0.093-0.521-0.125-0.59
			C127.771,351.652,127.633,351.836,127.542,352.131z"/>
		<path fill="#FFFFFF" d="M128.521,351.85l0.312,0.096c0.146,0.047,0.238,0.169,0.177,0.362c-0.044,0.143-0.152,0.228-0.296,0.198
			l-0.002,0.005c0.173,0.063,0.17,0.182,0.123,0.328l-0.033,0.112c-0.02,0.061-0.021,0.104-0.01,0.154l-0.071-0.021
			c-0.008-0.039-0.001-0.092,0.019-0.154l0.033-0.107c0.048-0.154,0.033-0.255-0.139-0.31l-0.23-0.071l-0.154,0.496l-0.062-0.021
			L128.521,351.85z M128.621,352.453c0.118,0.036,0.262,0.039,0.327-0.165c0.044-0.143-0.009-0.253-0.142-0.294l-0.238-0.076
			l-0.148,0.473L128.621,352.453z"/>
		<path fill="#FFFFFF" d="M129.457,352.204l-0.283-0.09l0.018-0.057l0.631,0.197l-0.02,0.057l-0.283-0.089l-0.314,1.012l-0.062-0.02
			L129.457,352.204z"/>
		<path fill="#FFFFFF" d="M129.954,352.296l0.513,0.159l-0.02,0.058L130,352.372l-0.135,0.427l0.418,0.129l-0.018,0.057l-0.417-0.13
			l-0.165,0.529l-0.064-0.021L129.954,352.296z"/>
		<path fill="#FFFFFF" d="M131.089,353.235c-0.147,0.467-0.364,0.492-0.517,0.443c-0.203-0.063-0.303-0.244-0.174-0.658
			c0.13-0.414,0.322-0.506,0.518-0.444C131.129,352.643,131.217,352.82,131.089,353.235z M130.461,353.039
			c-0.09,0.295-0.096,0.52,0.127,0.589c0.196,0.062,0.332-0.075,0.438-0.412c0.089-0.288,0.091-0.522-0.126-0.59
			C130.691,352.562,130.554,352.746,130.461,353.039z"/>
		<path fill="#FFFFFF" d="M131.439,352.758l0.062,0.021l-0.312,1.012l0.446,0.139l-0.019,0.058l-0.508-0.159L131.439,352.758z"/>
		<path fill="#FFFFFF" d="M132.115,352.969l0.062,0.02l-0.333,1.067l-0.063-0.018L132.115,352.969z"/>
		<path fill="#FFFFFF" d="M132.887,353.795c-0.146,0.469-0.365,0.492-0.516,0.445c-0.207-0.065-0.304-0.244-0.174-0.66
			c0.129-0.413,0.321-0.504,0.518-0.443C132.927,353.202,133.016,353.382,132.887,353.795z M132.26,353.602
			c-0.092,0.291-0.097,0.518,0.127,0.588c0.195,0.061,0.33-0.073,0.436-0.414c0.09-0.287,0.092-0.521-0.125-0.588
			C132.488,353.121,132.352,353.308,132.26,353.602z"/>
		<path fill="#FFFFFF" d="M123.217,352.385c-0.146,0.469-0.365,0.491-0.518,0.445c-0.205-0.064-0.301-0.246-0.172-0.66
			s0.32-0.505,0.518-0.443C123.256,351.793,123.346,351.97,123.217,352.385z M122.592,352.189c-0.094,0.293-0.1,0.52,0.124,0.589
			c0.196,0.063,0.332-0.075,0.437-0.412c0.091-0.289,0.093-0.521-0.124-0.589C122.818,351.713,122.682,351.896,122.592,352.189z"/>
		<path fill="#FFFFFF" d="M123.566,351.909l0.277,0.087c0.25,0.08,0.234,0.271,0.197,0.387c-0.053,0.18-0.203,0.26-0.395,0.201
			l-0.201-0.062l-0.148,0.476l-0.061-0.021L123.566,351.909z M123.668,352.534c0.127,0.039,0.256,0.005,0.312-0.172
			c0.047-0.152-0.005-0.271-0.15-0.316l-0.215-0.067l-0.154,0.491L123.668,352.534z"/>
		<path fill="#FFFFFF" d="M124.615,352.236l0.132,0.039l-0.109,0.926l0.003,0.001l0.424-0.827l0.156,0.05l-0.121,0.919l0.004,0.002
			l0.438-0.823l0.13,0.04l-0.554,1.002l-0.159-0.051l0.122-0.909l-0.002-0.002l-0.422,0.817l-0.162-0.051L124.615,352.236z"/>
		<path fill="#FFFFFF" d="M125.732,352.582l0.131,0.043l-0.109,0.924h0.004l0.422-0.826l0.16,0.049l-0.123,0.922h0.004l0.436-0.824
			l0.133,0.043l-0.555,0.999l-0.158-0.048l0.121-0.912l-0.002,0.001l-0.424,0.814l-0.16-0.049L125.732,352.582z"/>
		<path fill="#FFFFFF" d="M126.85,352.932l0.131,0.041l-0.109,0.924l0.002,0.002l0.426-0.828l0.158,0.049l-0.123,0.921l0.006,0.001
			l0.434-0.822l0.133,0.041l-0.555,1.001l-0.158-0.052l0.122-0.908l-0.004-0.002l-0.423,0.815l-0.16-0.049L126.85,352.932z"/>
		<path fill="#FFFFFF" d="M127.671,354.186l0.138,0.042l-0.049,0.157l-0.139-0.041L127.671,354.186z"/>
		<path fill="#FFFFFF" d="M128.236,353.363l0.139,0.044l-0.076,0.981h0.002l0.496-0.85l0.137,0.042l-0.6,0.983l-0.17-0.053
			L128.236,353.363z"/>
		<path fill="#FFFFFF" d="M129.055,353.619l0.131,0.041l-0.33,1.068l-0.131-0.041L129.055,353.619z"/>
		<path fill="#FFFFFF" d="M129.766,354.145c0.035-0.113,0.018-0.203-0.107-0.242c-0.111-0.033-0.197,0.005-0.231,0.12
			c-0.093,0.3,0.468,0.275,0.345,0.667c-0.076,0.246-0.277,0.259-0.43,0.214c-0.25-0.077-0.284-0.229-0.213-0.458l0.132,0.041
			c-0.038,0.121-0.07,0.252,0.122,0.311c0.105,0.033,0.209-0.016,0.244-0.129c0.096-0.305-0.463-0.285-0.342-0.678
			c0.031-0.098,0.135-0.281,0.404-0.197c0.203,0.065,0.264,0.195,0.206,0.392L129.766,354.145z"/>
		<path fill="#FFFFFF" d="M130.184,353.971l0.271,0.084c0.092,0.029,0.33,0.104,0.234,0.41c-0.062,0.199-0.223,0.271-0.404,0.215
			l-0.163-0.051l-0.14,0.45l-0.131-0.04L130.184,353.971z M130.156,354.52l0.156,0.049c0.097,0.03,0.199-0.011,0.242-0.15
			c0.035-0.119,0.004-0.212-0.125-0.253l-0.148-0.047L130.156,354.52z"/>
		<path fill="#FFFFFF" d="M130.939,354.207l0.552,0.17l-0.036,0.118l-0.42-0.131l-0.104,0.333l0.396,0.127l-0.038,0.115
			l-0.395-0.125l-0.119,0.385l0.437,0.137l-0.036,0.116l-0.568-0.179L130.939,354.207z"/>
		<path fill="#FFFFFF" d="M131.66,355.604l-0.131-0.042l0.297-0.951l-0.268-0.083l0.035-0.117l0.67,0.209l-0.037,0.115l-0.27-0.083
			L131.66,355.604z"/>
		<path fill="#FFFFFF" d="M132.002,355.535l0.139,0.043l-0.049,0.157l-0.139-0.042L132.002,355.535z"/>
		<path fill="#FFFFFF" d="M132.658,354.741l0.328,0.104c0.139,0.041,0.252,0.148,0.188,0.358c-0.029,0.096-0.119,0.175-0.225,0.174
			v0.003c0.121,0.071,0.148,0.19,0.107,0.321c-0.068,0.217-0.219,0.267-0.441,0.198l-0.289-0.091L132.658,354.741z M132.646,355.244
			l0.151,0.047c0.054,0.018,0.185,0.043,0.235-0.121c0.035-0.111,0-0.193-0.129-0.234l-0.148-0.045L132.646,355.244z
			 M132.49,355.743l0.18,0.056c0.139,0.044,0.217-0.035,0.248-0.139c0.047-0.146-0.031-0.233-0.146-0.27l-0.156-0.048
			L132.49,355.743z"/>
		<path fill="#FFFFFF" d="M133.471,354.998l0.553,0.17l-0.037,0.115l-0.42-0.13l-0.104,0.336l0.395,0.122l-0.035,0.117l-0.396-0.124
			l-0.12,0.385l0.438,0.136l-0.035,0.115l-0.57-0.179L133.471,354.998z"/>
	</g>
</g>
<g>
	<path fill="#C9453A" d="M-71.867,66.678l0.14,0.687l1.493,7.329l-0.352,7.472c-1.688,35.885-7.959,64.426-19.164,87.231
		c-15.053,31.269-47.089,71.437-114.317,86.072c-12.588,2.742-25.217,4.133-37.534,4.133c-19.641,0-38.876-3.504-57.171-10.414
		c-17.589-6.645-34.449-16.508-50.11-29.315c-20.301-16.601-37.537-38.579-51.23-65.327c-12.239-23.906-22.016-52.426-29.062-84.764
		c-0.192-0.863-0.423-1.908-0.668-3.104c-6.873-32.574-9.919-63.035-9.052-90.533c0.95-30.111,6.597-57.727,16.778-82.06
		c11.072-26.49,26.942-48.54,47.169-65.539c20.368-17.117,44.858-28.879,72.783-34.957c15.25-3.322,30.138-5.007,44.25-5.007h0
		c35.715,0,67.318,10.409,93.932,30.938l0.076,0.059l0.076,0.059c20.022,15.548,37.466,38.042,53.33,68.769l3.817,7.393l1.521,7.467
		l44.422-9.673c-8.162-30.957-26.025-59.684-53.572-86.182c-49.693-47.062-115.617-61.654-197.777-43.762
		c-61.402,13.369-107.629,44.994-138.663,94.867c-33.141,53.158-42.921,119.277-29.403,198.369h-0.026V877.08h452.658V86.545V57.021
		L-71.867,66.678z"/>
</g>
<path fill="#D0D2D3" d="M-110.501-111.594c-15.864-30.727-33.308-53.221-53.33-68.769l-0.076-0.059l-0.076-0.059
	c-26.613-20.529-58.217-30.938-93.932-30.938h0c-14.112,0-29,1.685-44.25,5.007c-27.924,6.078-52.415,17.84-72.783,34.957
	c-20.227,16.999-36.097,39.049-47.169,65.539c-10.181,24.333-15.828,51.949-16.778,82.06c-0.867,27.499,2.179,57.959,9.052,90.533
	c0.245,1.196,0.477,2.241,0.668,3.104c7.045,32.338,16.823,60.857,29.062,84.764c13.693,26.748,30.93,48.727,51.23,65.327
	c15.661,12.808,32.521,22.671,50.11,29.315c18.295,6.91,37.53,10.414,57.171,10.414c12.317,0,24.946-1.391,37.534-4.133
	c67.229-14.636,99.265-54.804,114.317-86.072c11.205-22.806,17.476-51.347,19.164-87.231l0.352-7.472l-1.493-7.329l-0.14-0.687
	l-58.161,12.666c-1.287,27.365-5.676,48.639-13.186,63.807c-13.445,28.109-37.82,46.006-73.131,53.693
	c-8.521,1.856-16.853,2.771-24.996,2.754c-0.087,0-0.174,0.004-0.261,0.004c-0.063,0-0.125-0.004-0.188-0.004
	c-1.36-0.003-2.714-0.035-4.063-0.09c-0.322-0.013-0.643-0.031-0.964-0.047c-1.191-0.06-2.377-0.137-3.56-0.237
	c-0.209-0.018-0.418-0.03-0.627-0.049c-1.337-0.122-2.667-0.274-3.994-0.448c-0.322-0.042-0.643-0.089-0.964-0.134
	c-1.18-0.167-2.355-0.352-3.526-0.559c-0.189-0.034-0.38-0.062-0.569-0.098c-1.313-0.24-2.619-0.513-3.921-0.806
	c-0.321-0.072-0.642-0.148-0.962-0.225c-1.172-0.275-2.34-0.57-3.504-0.889c-0.166-0.045-0.333-0.085-0.498-0.132
	c-1.289-0.36-2.572-0.753-3.851-1.165c-0.321-0.104-0.642-0.211-0.962-0.317c-1.164-0.389-2.325-0.795-3.481-1.227
	c-0.143-0.054-0.287-0.103-0.43-0.157c-1.267-0.479-2.526-0.993-3.783-1.525c-0.317-0.134-0.633-0.271-0.949-0.409
	c-1.164-0.507-2.325-1.031-3.48-1.583c-0.115-0.056-0.23-0.105-0.345-0.161c-1.245-0.601-2.484-1.235-3.719-1.889
	c-0.312-0.165-0.622-0.332-0.933-0.5c-1.17-0.633-2.336-1.284-3.496-1.964c-0.081-0.048-0.163-0.092-0.244-0.14
	c-1.225-0.723-2.443-1.48-3.658-2.256c-0.305-0.194-0.609-0.392-0.913-0.59c-1.179-0.767-2.354-1.551-3.521-2.368
	c-0.045-0.032-0.09-0.062-0.135-0.093c-1.205-0.845-2.402-1.727-3.596-2.625c-0.298-0.224-0.595-0.449-0.892-0.677
	c-1.196-0.915-2.389-1.848-3.574-2.816c-27.853-22.775-47.731-61.635-59.675-116.537c-0.178-0.799-0.354-1.59-0.518-2.4
	c-11.882-56.182-10.445-101.936,4.335-137.264c14.763-35.318,40.55-56.996,77.364-65.01c1.276-0.278,2.542-0.536,3.802-0.782
	c0.398-0.078,0.794-0.149,1.191-0.224c0.87-0.164,1.736-0.321,2.597-0.469c0.447-0.077,0.894-0.151,1.338-0.224
	c0.833-0.136,1.663-0.264,2.489-0.386c0.419-0.062,0.839-0.125,1.257-0.184c0.974-0.135,1.941-0.259,2.905-0.374
	c0.248-0.03,0.498-0.064,0.745-0.093c1.203-0.138,2.397-0.259,3.584-0.365c0.318-0.028,0.633-0.049,0.95-0.076
	c0.873-0.072,1.742-0.138,2.605-0.192c0.411-0.026,0.82-0.048,1.229-0.07c0.783-0.042,1.562-0.077,2.337-0.105
	c0.407-0.015,0.815-0.029,1.221-0.04c0.832-0.022,1.657-0.033,2.48-0.038c0.248-0.001,0.501-0.011,0.748-0.011
	c0.067,0,0.134,0.003,0.201,0.003c0.153,0,0.308,0,0.461,0c22.176,0.031,41.214,6.178,57.114,18.442
	c12.883,10.004,25.15,26.309,36.816,48.904l58.16-12.665l-1.521-7.467L-110.501-111.594z"/>
<g>
	<rect x="-301.374" y="750.57" fill="#D0D2D3" width="41.554" height="41.555"/>
	<g>
		<g>
			<polygon fill="#C9453A" points="-290.533,775.018 -292.458,782.535 -294.089,782.535 -296.014,775.018 -294.262,775.018 
				-293.27,779.949 -292.279,775.018 			"/>
			<rect x="-289.646" y="775.033" fill="#C9453A" width="1.678" height="7.514"/>
			<path fill="#C9453A" d="M-281.966,781.615c0,0.622-0.316,0.932-0.946,0.932h-2.871c-0.631,0-0.948-0.31-0.948-0.932v-1.618h1.633
				v1.267h1.499v-1.19l-2.616-1.545c-0.344-0.204-0.516-0.479-0.516-0.818v-1.763c0-0.62,0.32-0.931,0.963-0.931h2.841
				c0.632,0,0.946,0.311,0.946,0.931v1.515h-1.618v-1.161h-1.499v1.087l2.61,1.527c0.349,0.199,0.522,0.478,0.522,0.837V781.615
				L-281.966,781.615z"/>
			<g>
				<path fill="#C9453A" d="M-281.915,768.015c1.776,0,4.672-1.005,6.669-2.178c2.138-1.259,4.625-3.583,4.908-4.036
					c-1.961-3.117-3.399-3.723-4.275-3.894c-0.229-0.045-0.542-0.083-0.93-0.083c-1.101,0-2.806,0.297-4.908,1.542
					c-2.844,1.685-2.418,4.074-2.418,4.074l0.604,4.559C-282.155,768.01-282.037,768.015-281.915,768.015z"/>
				<path fill="#C9453A" d="M-281.915,768.346c-0.132,0-0.261-0.005-0.38-0.017l-0.157-0.014c-0.675,1.167-2.271,3.966-2.189,4.18
					c0.095,0.245,2.198,0.708,2.477,0.695c0.279-0.014,2.896-0.169,3.863-2.716c0.598-1.577,1.052-2.736,1.312-3.393
					C-278.757,767.842-280.651,768.346-281.915,768.346z"/>
			</g>
		</g>
		<g>
			<path fill="#C9453A" d="M-289.853,772.936c0.056,0.533,0.566,0.919,1.139,0.859c0.572-0.06,0.991-0.542,0.936-1.079
				c-0.057-0.533-0.566-0.917-1.139-0.858C-289.489,771.917-289.909,772.4-289.853,772.936"/>
			<path fill="#FFFFFF" d="M-275.746,780.986c0,0.605-0.22,1.031-0.657,1.271c-0.318,0.173-0.801,0.259-1.447,0.259
				c-0.148,0-0.358-0.004-0.628-0.014c-0.272-0.011-0.467-0.016-0.585-0.016v2.743h-1.708v-10.213h1.708v0.272
				c0.396-0.059,0.795-0.12,1.193-0.185c0.501-0.079,0.899-0.119,1.192-0.119c0.621,0,0.933,0.304,0.933,0.91V780.986
				L-275.746,780.986z M-277.461,780.521v-4.092l-1.603,0.029v4.625h1.058C-277.643,781.083-277.461,780.896-277.461,780.521"/>
			<path fill="#FFFFFF" d="M-269.669,781.615c0,0.622-0.32,0.932-0.961,0.932h-2.945c-0.643,0-0.962-0.31-0.962-0.932v-5.668
				c0-0.62,0.32-0.931,0.962-0.931h2.945c0.641,0,0.961,0.311,0.961,0.931v2.767l-0.47,0.471h-2.766v2.109h1.603v-1.252h1.632
				V781.615L-269.669,781.615z M-271.302,776.269h-1.603v1.806h1.603V776.269z"/>
			<path fill="#FFFFFF" d="M-265.179,782.547h-1.895c-0.631,0-0.946-0.31-0.946-0.932v-5.146h-0.806v-1.453h0.806v-2.218h1.699
				v2.218h1.095v1.453h-1.095v4.624h1.142V782.547L-265.179,782.547z"/>
			<path fill="#FFFFFF" d="M-286.661,762.794c0.026,0.171,0.196,0.286,0.38,0.261c0.182-0.028,0.31-0.19,0.284-0.363
				c-0.026-0.17-0.195-0.285-0.38-0.259C-286.559,762.461-286.686,762.622-286.661,762.794"/>
			<path fill="#FFFFFF" d="M-285.856,771.525c0.015,0.172,0.177,0.299,0.362,0.282c0.184-0.017,0.322-0.169,0.306-0.342
				c-0.016-0.172-0.178-0.299-0.362-0.282S-285.872,771.354-285.856,771.525"/>
			<path fill="#FFFFFF" d="M-289.116,767.449c0.048,0.273,0.324,0.454,0.619,0.401c0.292-0.051,0.492-0.313,0.443-0.589
				c-0.048-0.274-0.326-0.454-0.618-0.402C-288.965,766.911-289.165,767.176-289.116,767.449"/>
			<path fill="#FFFFFF" d="M-287.556,769.494c0.087,0.492,0.586,0.816,1.113,0.723c0.529-0.092,0.886-0.566,0.8-1.06
				c-0.087-0.493-0.585-0.816-1.113-0.725C-287.285,768.525-287.642,769.001-287.556,769.494"/>
			<path fill="#FFFFFF" d="M-287.061,765.848c0.107,0.61,0.724,1.012,1.377,0.896c0.655-0.115,1.098-0.704,0.991-1.313
				c-0.108-0.61-0.725-1.011-1.378-0.895C-286.726,764.648-287.169,765.236-287.061,765.848"/>
			<path fill="#FFFFFF" d="M-290.842,763.827c0.113,0.74,0.846,1.243,1.639,1.121c0.793-0.119,1.345-0.817,1.233-1.557
				c-0.112-0.74-0.846-1.244-1.639-1.122C-290.402,762.39-290.954,763.087-290.842,763.827"/>
			<path fill="#FFFFFF" d="M-289.284,759.33c0.131,0.875,1.002,1.471,1.941,1.329c0.94-0.142,1.592-0.969,1.46-1.844
				c-0.132-0.877-1.002-1.474-1.942-1.33C-288.763,757.628-289.417,758.453-289.284,759.33"/>
		</g>
	</g>
</g>
<g>
	<path fill="#FFFFFF" d="M-373.172,433.44c-0.711,15.915-7.56,26.222-19.362,28.822c-13.461,2.967-21.104-6.273-21.29-30.981
		c-0.186-24.709,7.292-37.281,20.753-40.248c13.37-2.946,18.976,5.776,19.061,17.069l-5.9,1.3
		c-0.07-9.362-4.639-15.027-13.121-13.157c-9.404,2.072-15.06,11.439-14.893,33.734c0.167,22.297,5.946,29.146,15.35,27.073
		c8.298-1.829,12.944-10.299,13.5-22.312L-373.172,433.44z"/>
	<path fill="#FFFFFF" d="M-333.795,413.742l-25.724,5.669l0.258,34.359l-5.9,1.302l-0.519-68.914l5.901-1.302l0.22,29.342
		l25.724-5.669l-0.22-29.342l5.9-1.3l0.519,68.914l-5.901,1.3L-333.795,413.742z"/>
	<path fill="#FFFFFF" d="M-317.461,375.531l5.901-1.301l0.519,68.914l-5.901,1.301L-317.461,375.531z"/>
	<path fill="#FFFFFF" d="M-300.867,371.874l32.639-7.192l0.039,5.211l-26.738,5.894l0.189,25.094l24.986-5.506l0.039,5.212
		l-24.986,5.507l0.212,28.183l27.568-6.075l0.04,5.213l-33.468,7.375L-300.867,371.874z"/>
	<path fill="#FFFFFF" d="M-259.933,150.704l5.9-1.3l0.479,275.851l27.292-6.015l0.039,5.213l-33.192,7.314L-259.933,150.704z"/>
	<path fill="#FFFFFF" d="M-373.059,515.759c-0.711,15.916-7.56,26.223-19.361,28.824c-13.462,2.967-21.104-6.274-21.29-30.983
		c-0.186-24.708,7.293-37.28,20.754-40.247c13.369-2.946,18.976,5.775,19.061,17.069l-5.901,1.3
		c-0.07-9.361-4.638-15.026-13.12-13.156c-9.405,2.072-15.06,11.439-14.892,33.733c0.167,22.296,5.944,29.146,15.349,27.072
		c8.298-1.829,12.945-10.297,13.5-22.312L-373.059,515.759z"/>
	<path fill="#FFFFFF" d="M-333.681,496.062l-25.724,5.669l0.258,34.359l-5.901,1.301l-0.519-68.913l5.901-1.301l0.221,29.342
		l25.724-5.669l-0.22-29.342l5.901-1.3l0.518,68.913l-5.9,1.3L-333.681,496.062z"/>
	<path fill="#FFFFFF" d="M-317.348,457.852l5.901-1.301l0.519,68.913l-5.9,1.301L-317.348,457.852z"/>
	<path fill="#FFFFFF" d="M-300.753,454.194l32.639-7.192l0.04,5.21l-26.738,5.894l0.188,25.096l24.986-5.506l0.039,5.21
		l-24.986,5.507l0.212,28.183l27.568-6.075l0.039,5.212l-33.468,7.376L-300.753,454.194z"/>
	<path fill="#FFFFFF" d="M-259.82,445.174l5.901-1.301l0.479,63.701l27.291-6.015l0.04,5.213l-33.192,7.314L-259.82,445.174z"/>
	<path fill="#FFFFFF" d="M-220.544,436.519l32.638-7.193l0.04,5.211l-26.738,5.893l0.188,25.097l24.986-5.507l0.039,5.211
		l-24.986,5.507l0.212,28.183l27.568-6.075l0.039,5.212l-33.469,7.376L-220.544,436.519z"/>
	<path fill="#FFFFFF" d="M-179.611,427.497l7.93-1.747l25.622,54.487l0.185-0.041l-0.452-60.033l5.901-1.3l0.519,68.913l-7.93,1.747
		l-25.622-54.487l-0.185,0.041l0.451,60.033l-5.9,1.3L-179.611,427.497z"/>
	<path fill="#FFFFFF" d="M-101.111,427.891c-0.064-8.494-3.883-12.775-11.903-11.008c-8.021,1.768-12.406,8.243-12.354,15.097
		c0.154,20.558,31.971,2.235,32.153,26.461c0.101,13.32-7.777,21.919-19.764,24.562c-12.355,2.722-19.229-2.724-19.332-16.236
		l-0.015-2.026l5.9-1.301l0.02,2.606c0.066,8.783,4.536,13.696,13.203,11.785c8.298-1.828,14.165-7.472,14.094-17.124
		c-0.154-20.462-31.968-1.753-32.156-26.75c-0.081-10.812,6.594-19.727,18.026-22.246c12.264-2.702,17.937,2.622,18.028,14.88
		L-101.111,427.891z"/>
</g>
<g>
	<path fill="#D0D2D3" d="M-301.041,572.921h12.545v1.398h-11v10.484h10.264v1.398h-10.264l0,11.588h11.331v1.398h-12.876
		L-301.041,572.921z"/>
	<path fill="#D0D2D3" d="M-284.447,572.921l12.545,0.001v1.398l-11-0.001v10.484l10.264,0.001v1.398l-10.264-0.001l0,11.588
		l11.331,0.001v1.398l-12.876-0.001L-284.447,572.921z"/>
	<path fill="#D0D2D3" d="M-266.05,572.922l11.441,23.84h0.073l0-23.84h1.545l0,26.268h-2.023l-11.478-23.839h-0.074l0,23.839h-1.545
		l0-26.268H-266.05z"/>
	<path fill="#D0D2D3" d="M-236.284,572.923l11.441,23.84h0.073l0-23.84h1.545l0,26.268h-2.023l-11.478-23.839h-0.074l0,23.839
		h-1.545l0-26.268H-236.284z"/>
	<path fill="#D0D2D3" d="M-206.52,591.024l-9.896-0.001l-2.501,8.167h-1.545l8.167-26.268l1.95,0.001l7.872,26.268h-1.545
		L-206.52,591.024z M-211.338,574.47h-0.074l-4.635,15.303l9.233,0.001L-211.338,574.47z"/>
	<path fill="#D0D2D3" d="M-187.902,591.024h-9.896l-2.501,8.167h-1.545l8.167-26.268h1.95l7.872,26.268h-1.546L-187.902,591.024z
		 M-192.721,574.47h-0.073l-4.636,15.304h9.234L-192.721,574.47z"/>
	<path fill="#D0D2D3" d="M-162.772,574.912h-0.074l-7.541,24.28h-1.546l-7.541-24.281h-0.073l-0.001,24.28h-1.545l0.001-26.268
		h2.501l7.468,23.62h0.073l7.284-23.619h2.539v26.268h-1.545V574.912z"/>
	<path fill="#D0D2D3" d="M-301.042,608.879h12.545v1.398h-11v10.484h10.264v1.398h-10.264l0,11.588h11.331v1.398h-12.876
		L-301.042,608.879z"/>
	<path fill="#D0D2D3" d="M-282.645,608.879l11.441,23.841h0.073l0-23.84h1.545l0,26.268h-2.023l-11.478-23.84h-0.074l0,23.839
		h-1.545l0-26.268H-282.645z"/>
	<path fill="#D0D2D3" d="M-241.291,616.423c0-3.531-1.876-6.732-5.739-6.733c-5.224,0-6.953,4.893-6.953,12.287
		c0,7.063,1.434,12.361,6.731,12.361c5.077,0.001,6.291-5.959,6.291-8.019h1.545c0,3.09-1.545,9.271-8.094,9.27
		c-5.702,0-8.02-5.04-8.02-13.538c0-8.241,2.318-13.612,8.425-13.612c6.144,0.001,7.358,5.409,7.358,7.984H-241.291z"/>
	<path fill="#D0D2D3" d="M-237.572,608.881h1.545l6.548,24.502h0.074l6.549-24.502h1.545l-7.174,26.268h-1.913L-237.572,608.881z"/>
	<path fill="#D0D2D3" d="M-301.043,644.837h5.997c5.555,0,9.455,2.354,9.454,13.134c0,10.779-4.488,13.134-9.455,13.134h-5.997
		L-301.043,644.837z M-295.047,669.854c5.592,0,7.91-3.826,7.91-11.883c0-8.057-1.876-11.883-7.909-11.883h-4.452l0,23.766H-295.047
		z"/>
	<path fill="#D0D2D3" d="M-269.476,662.938h-9.896l-2.501,8.166h-1.545l8.167-26.267h1.95l7.873,26.268h-1.545L-269.476,662.938z
		 M-274.294,646.384h-0.074l-4.636,15.304h9.234L-274.294,646.384z"/>
	<path fill="#D0D2D3" d="M-259.611,646.236h-6.99v-1.398h15.525v1.398h-6.99l0,24.869h-1.545L-259.611,646.236z"/>
	<path fill="#D0D2D3" d="M-238.086,644.839h7.063c5.15,0,6.879,2.649,6.879,6.549c0,3.531-1.95,5.519-4.856,5.886v0.074
		c3.789,0.257,5.702,3.017,5.702,6.622c0,4.414-2.87,7.137-7.505,7.137h-7.284L-238.086,644.839z M-231.501,656.722
		c3.384,0,5.813-1.618,5.813-5.334c0-3.568-1.766-5.298-5.15-5.298h-5.703l0,10.632H-231.501z M-231.354,669.855
		c4.268,0,6.512-1.582,6.512-5.923c0-4.672-2.833-5.96-6.585-5.96h-5.114v11.883H-231.354z"/>
	<path fill="#D0D2D3" d="M-218.77,644.839h1.545v24.869l11,0.001v1.398l-12.545-0.001V644.839z"/>
	<path fill="#D0D2D3" d="M-202.175,644.84h1.545l-0.001,26.268h-1.545L-202.175,644.84z"/>
	<path fill="#D0D2D3" d="M-195.038,664.228c0,4.121,1.508,6.07,4.268,6.07c2.28,0,4.487-1.141,4.487-5.188l0.001-20.271h1.545
		v20.271c0,4.378-2.429,6.438-5.924,6.438c-4.672,0-5.923-3.164-5.923-7.542v-0.588h1.546V664.228z"/>
	<path fill="#D0D2D3" d="M-179.327,644.84l12.582,0.001v1.398h-11.037v10.484h10.264v1.398h-10.264v12.986l-1.545-0.001V644.84z"/>
	<path fill="#D0D2D3" d="M-158.612,646.239h-6.99v-1.398h15.525v1.398h-6.99v24.869h-1.545V646.239z"/>
	<path fill="#D0D2D3" d="M-301.044,680.795h1.545l0,11.516h11.515l0-11.516h1.545l0,26.268h-1.545v-13.354H-299.5v13.354h-1.545
		L-301.044,680.795z"/>
	<path fill="#D0D2D3" d="M-269.477,698.896h-9.896l-2.501,8.166h-1.545l8.167-26.267h1.95l7.873,26.268h-1.545L-269.477,698.896z
		 M-274.295,682.341h-0.074l-4.636,15.305h9.234L-274.295,682.341z"/>
	<path fill="#D0D2D3" d="M-260.607,680.796l11.441,23.84h0.073l0-23.84h1.545l0,26.268h-2.023l-11.478-23.839h-0.074l0,23.839
		h-1.545l0-26.268H-260.607z"/>
	<path fill="#D0D2D3" d="M-228.194,701.767h-0.074c-0.846,3.568-3.201,5.739-6.917,5.739c-5.739,0-8.056-5.04-8.056-13.538
		c0-8.241,2.318-13.612,8.425-13.612c6.144,0,7.358,5.408,7.358,7.983h-1.545c0-3.531-1.876-6.732-5.739-6.732
		c-5.224,0-6.953,4.893-6.953,12.287c0,7.063,1.435,12.361,6.732,12.361c4.967,0,6.475-4.819,6.475-9.454v-1.619h-7.21v-1.251h8.755
		v13.134h-1.25V701.767z"/>
	<path fill="#D0D2D3" d="M-222.378,680.797l12.545,0.001v1.398l-11-0.001l0,10.484l10.264,0.001v1.398l-10.264-0.001v11.588
		l11.332,0.001v1.398l-12.876-0.001L-222.378,680.797z"/>
	<path fill="#D0D2D3" d="M-203.981,680.798l11.44,23.84h0.073v-23.84h1.546l-0.001,26.268h-2.023l-11.477-23.839h-0.074v23.839
		h-1.545v-26.268H-203.981z"/>
</g>
<g>
	<path fill="#FFFFFF" d="M-239.708,757.159c0-2.068-1.098-3.942-3.36-3.942c-3.06,0-4.073,2.865-4.073,7.196
		c0,4.137,0.84,7.239,3.943,7.239c2.973,0,3.684-3.489,3.684-4.696h0.905c0,1.81-0.905,5.43-4.74,5.429
		c-3.339,0-4.697-2.952-4.697-7.929c0-4.826,1.358-7.972,4.934-7.972c3.598,0.001,4.309,3.168,4.309,4.676L-239.708,757.159z"/>
	<path fill="#FFFFFF" d="M-237.531,752.743h0.905l3.835,14.35h0.043l3.835-14.35h0.905l-4.202,15.384h-1.12L-237.531,752.743z"/>
	<path fill="#FFFFFF" d="M-220.422,752.743h7.347v0.819h-6.442l0,6.141h6.012v0.818h-6.012v6.787h6.636v0.818h-7.541
		L-220.422,752.743z"/>
	<path fill="#FFFFFF" d="M-209.649,752.743l6.699,13.963h0.043l0.001-13.962H-202l-0.001,15.384h-1.185l-6.723-13.963h-0.043v13.962
		h-0.904v-15.384H-209.649z"/>
	<path fill="#FFFFFF" d="M-193.274,752.744h3.986c3.598,0.065,4.18,2.607,4.18,4.267c0,2.606-1.616,4.266-4.374,4.266h-2.888v6.852
		h-0.904V752.744z M-189.396,760.544c1.831,0,3.383-0.991,3.383-3.533c0.001-2.198-1.163-3.534-3.253-3.534h-3.103l-0.001,7.067
		H-189.396z"/>
	<path fill="#FFFFFF" d="M-173.323,760.437c0,6.743-2.779,7.95-4.955,7.95c-2.952,0-4.977-1.982-4.977-7.95
		c0-5.969,2.154-7.95,4.977-7.95C-175.218,752.486-173.323,754.468-173.323,760.437z M-182.35,760.437
		c0,4.223,0.861,7.218,4.072,7.218c2.822,0,4.051-2.327,4.051-7.218c0-4.158-0.926-7.218-4.051-7.218
		C-181.293,753.219-182.35,756.213-182.35,760.437z"/>
	<path fill="#FFFFFF" d="M-170.649,752.745h4.502c2.133,0,3.814,1.229,3.813,4.029c0,2.025-1.077,3.598-3.081,3.813v0.043
		c2.521,0.151,2.973,1.702,2.973,3.813v1.616c0,0.884,0.13,1.443,0.518,2.068h-1.034c-0.237-0.452-0.388-1.185-0.388-2.09v-1.573
		c0-2.197-0.604-3.469-3.081-3.469h-3.317v7.132h-0.905L-170.649,752.745z M-166.858,760.265c1.702,0,3.619-0.56,3.619-3.49
		c0.001-2.068-1.162-3.297-3.037-3.297h-3.469v6.787H-166.858z"/>
	<path fill="#FFFFFF" d="M-156.899,753.564h-4.094v-0.819h9.092v0.819h-4.094v14.564h-0.904V753.564z"/>
	<path fill="#FFFFFF" d="M-150.003,752.745h7.368v0.819h-6.463l-0.001,6.141h6.011v0.818h-6.011v7.605h-0.905L-150.003,752.745z"/>
	<path fill="#FFFFFF" d="M-131.259,760.438c0,6.743-2.779,7.95-4.955,7.95c-2.952-0.001-4.978-1.983-4.978-7.951
		c0.001-5.969,2.155-7.95,4.979-7.949C-133.155,752.488-131.258,754.47-131.259,760.438z M-140.287,760.438
		c0,4.223,0.862,7.218,4.072,7.219c2.822,0,4.05-2.327,4.05-7.218c0-4.158-0.926-7.218-4.049-7.218
		C-139.231,753.22-140.287,756.214-140.287,760.438z"/>
	<path fill="#FFFFFF" d="M-128.586,752.746h0.905l-0.001,14.565h6.442v0.818h-7.347V752.746z"/>
	<path fill="#FFFFFF" d="M-118.869,752.746h0.905l-0.001,15.384h-0.905L-118.869,752.746z"/>
	<path fill="#FFFFFF" d="M-105.36,760.438c0,6.743-2.779,7.95-4.955,7.95c-2.952,0-4.978-1.982-4.978-7.95
		c0.001-5.969,2.155-7.95,4.978-7.95C-107.256,752.488-105.36,754.47-105.36,760.438z M-114.387,760.438
		c0,4.223,0.861,7.218,4.072,7.218c2.822,0,4.05-2.327,4.05-7.218c0-4.158-0.926-7.218-4.05-7.218
		C-113.332,753.221-114.387,756.215-114.387,760.438z"/>
	<path fill="#FFFFFF" d="M-238.114,781.493c0,6.743-2.779,7.949-4.955,7.949c-2.952,0-4.977-1.982-4.977-7.95
		c0-5.969,2.154-7.95,4.977-7.95C-240.01,773.542-238.114,775.524-238.114,781.493z M-247.142,781.492
		c0,4.223,0.862,7.218,4.072,7.218c2.822,0,4.05-2.326,4.05-7.217c0-4.158-0.926-7.219-4.05-7.219
		C-246.086,774.274-247.142,777.269-247.142,781.492z"/>
	<path fill="#FFFFFF" d="M-235.441,773.801h3.986c3.598,0.065,4.18,2.607,4.18,4.267c0,2.606-1.616,4.266-4.374,4.266h-2.887v6.852
		h-0.905V773.801z M-231.563,781.601c1.832,0,3.383-0.991,3.383-3.533c0-2.198-1.164-3.533-3.253-3.533h-3.103v7.066H-231.563z"/>
	<path fill="#FFFFFF" d="M-220.359,773.801h1.896l2.35,12.583h0.043l2.176-12.583h2.283l2.176,12.583h0.044l2.349-12.583
		l1.896,0.001l-3.167,15.383h-2.305l-2.112-12.453h-0.043l-2.22,12.453h-2.305L-220.359,773.801z"/>
	<path fill="#FFFFFF" d="M-204.264,773.802h1.896l2.349,12.583h0.043l2.177-12.583h2.283l2.176,12.583h0.043l2.349-12.583h1.896
		l-3.166,15.384h-2.307l-2.111-12.453h-0.043l-2.219,12.453h-2.305L-204.264,773.802z"/>
	<path fill="#FFFFFF" d="M-188.168,773.802h1.896l2.349,12.583h0.043l2.177-12.583h2.283l2.176,12.583h0.043l2.349-12.583h1.896
		l-3.166,15.384h-2.307l-2.111-12.453h-0.043l-2.219,12.453h-2.305L-188.168,773.802z"/>
	<path fill="#FFFFFF" d="M-172.245,786.901l1.982,0.001v2.284l-1.982-0.001V786.901z"/>
	<path fill="#FFFFFF" d="M-168.172,773.803h1.982l3.016,13.208h0.043l3.018-13.208h1.981l-3.878,15.384h-2.414L-168.172,773.803z"/>
	<path fill="#FFFFFF" d="M-156.387,773.803h1.896v15.384h-1.896V773.803z"/>
	<path fill="#FFFFFF" d="M-144.924,777.789c0-1.616-0.582-2.736-2.392-2.736c-1.595,0-2.542,0.862-2.542,2.499
		c0,4.331,7.261,1.745,7.261,7.369c0,3.555-2.606,4.567-4.783,4.567c-3.599,0-4.653-1.853-4.653-5.128h1.896
		c0,1.724,0.108,3.576,2.888,3.576c1.508,0,2.671-1.077,2.671-2.715c0-4.352-7.261-1.831-7.261-7.476
		c0-1.422,0.604-4.245,4.503-4.245c2.931,0,4.267,1.466,4.31,4.288H-144.924z"/>
	<path fill="#FFFFFF" d="M-140.14,773.803l3.921,0.001c1.336,0,4.762,0,4.762,4.417c0,2.865-1.831,4.46-4.438,4.46l-2.35-0.001
		v6.507h-1.896V773.803z M-138.245,781.129l2.263,0.001c1.379,0,2.542-0.948,2.542-2.995c0-1.681-0.797-2.779-2.671-2.779
		l-2.134-0.001V781.129z"/>
	<path fill="#FFFFFF" d="M-129.238,773.804h7.95v1.681h-6.055v4.826h5.71v1.681h-5.71v5.516h6.313v1.681h-8.209V773.804z"/>
	<path fill="#FFFFFF" d="M-114.047,789.188h-1.896v-13.703h-3.855v-1.681h9.631v1.681h-3.879V789.188z"/>
	<path fill="#FFFFFF" d="M-109.84,786.903h1.982v2.284h-1.982V786.903z"/>
	<path fill="#FFFFFF" d="M-104.476,773.804l4.719,0.001c2.003,0,3.942,0.948,3.942,3.943c0,1.4-0.84,2.801-2.24,3.21v0.043
		c1.896,0.453,2.736,1.896,2.736,3.792c0,3.124-1.768,4.396-4.977,4.396l-4.181-0.001V773.804z M-102.581,780.441h2.177
		c0.798,0,2.606-0.194,2.606-2.564c0-1.594-0.797-2.521-2.649-2.521h-2.134V780.441z M-102.581,787.638h2.586
		c2.004,0,2.693-1.357,2.693-2.845c0-2.111-1.357-2.93-3.017-2.93h-2.263V787.638z"/>
	<path fill="#FFFFFF" d="M-92.754,773.805h7.95v1.681h-6.054v4.826h5.709v1.681h-5.709v5.516h6.312v1.681h-8.209V773.805z"/>
</g>
</svg>
