<?xml version="1.0" encoding="utf-8"?>
<!-- Generator: Adobe Illustrator 14.0.0, SVG Export Plug-In . SVG Version: 6.00 Build 43363)  -->
<!DOCTYPE svg PUBLIC "-//W3C//DTD SVG 1.1//EN" "http://www.w3.org/Graphics/SVG/1.1/DTD/svg11.dtd">
<svg version="1.1" id="Layer_1" xmlns="http://www.w3.org/2000/svg" xmlns:xlink="http://www.w3.org/1999/xlink" x="0px" y="0px"
	 width="30px" height="30px" viewBox="0 0 30 30" enable-background="new 0 0 30 30" xml:space="preserve">
<g>
	<polygon fill="#C9453A" points="7.534,17.872 6.099,23.48 4.881,23.48 3.446,17.872 4.753,17.872 5.493,21.552 6.232,17.872 	"/>
	<rect x="8.196" y="17.886" fill="#C9453A" width="1.251" height="5.604"/>
	<path fill="#C9453A" d="M13.924,22.795c0,0.463-0.236,0.694-0.707,0.694h-2.141c-0.471,0-0.707-0.231-0.707-0.694v-1.208h1.218
		v0.945h1.118v-0.889l-1.952-1.151c-0.256-0.152-0.384-0.356-0.384-0.612v-1.312c0-0.463,0.239-0.695,0.717-0.695h2.12
		c0.47,0,0.706,0.232,0.706,0.695v1.129h-1.207v-0.867h-1.118v0.812l1.946,1.141c0.26,0.148,0.39,0.355,0.39,0.623V22.795
		L13.924,22.795z"/>
	<g>
		<path fill="#C9453A" d="M13.962,12.65c1.325,0,3.484-0.748,4.975-1.625c1.594-0.938,3.448-2.672,3.659-3.009
			c-1.462-2.324-2.534-2.775-3.188-2.904c-0.171-0.034-0.404-0.061-0.693-0.061c-0.821,0-2.094,0.221-3.661,1.149
			c-2.122,1.257-1.804,3.039-1.804,3.039l0.45,3.4C13.783,12.646,13.871,12.65,13.962,12.65z"/>
		<path fill="#C9453A" d="M13.962,12.897c-0.099,0-0.195-0.004-0.284-0.012l-0.118-0.011c-0.503,0.871-1.693,2.958-1.632,3.118
			c0.071,0.183,1.64,0.528,1.848,0.518c0.208-0.011,2.159-0.126,2.88-2.026c0.446-1.175,0.785-2.04,0.979-2.53
			C16.316,12.521,14.905,12.897,13.962,12.897z"/>
	</g>
</g>
<g>
	<path fill="#C9453A" d="M8.042,16.319c0.042,0.399,0.422,0.687,0.849,0.642s0.74-0.404,0.698-0.803
		c-0.042-0.399-0.422-0.686-0.85-0.641C8.313,15.562,8,15.921,8.042,16.319"/>
	<path fill="#C9453A" d="M18.562,22.324c0,0.453-0.163,0.77-0.489,0.949c-0.237,0.129-0.597,0.193-1.079,0.193
		c-0.111,0-0.268-0.004-0.47-0.011c-0.202-0.008-0.349-0.011-0.437-0.011v2.044h-1.274v-7.617h1.274v0.204
		c0.296-0.044,0.593-0.09,0.89-0.138c0.374-0.059,0.671-0.088,0.89-0.088c0.464,0,0.695,0.226,0.695,0.679V22.324L18.562,22.324z
		 M17.283,21.977v-3.051l-1.196,0.022v3.448h0.79C17.147,22.396,17.283,22.257,17.283,21.977"/>
	<path fill="#C9453A" d="M23.095,22.794c0,0.464-0.238,0.695-0.717,0.695h-2.197c-0.479,0-0.717-0.231-0.717-0.695v-4.227
		c0-0.463,0.238-0.695,0.717-0.695h2.196c0.479,0,0.718,0.232,0.718,0.695v2.063l-0.351,0.351h-2.062v1.574h1.195v-0.935h1.218
		V22.794L23.095,22.794z M21.877,18.807h-1.195v1.346h1.195V18.807z"/>
	<path fill="#C9453A" d="M26.443,23.489H25.03c-0.471,0-0.706-0.231-0.706-0.694v-3.838h-0.601v-1.085h0.601v-1.653h1.268v1.653
		h0.817v1.085h-0.817v3.448h0.852V23.489L26.443,23.489z"/>
	<path fill="#C9453A" d="M10.422,8.756c0.02,0.128,0.146,0.214,0.283,0.194c0.136-0.021,0.231-0.141,0.212-0.269
		c-0.02-0.127-0.146-0.214-0.283-0.193C10.498,8.509,10.403,8.629,10.422,8.756"/>
	<path fill="#C9453A" d="M11.022,15.269c0.011,0.129,0.132,0.223,0.27,0.21c0.138-0.012,0.24-0.126,0.229-0.255
		c-0.012-0.128-0.132-0.222-0.271-0.21C11.112,15.026,11.01,15.141,11.022,15.269"/>
	<path fill="#C9453A" d="M8.591,12.229c0.036,0.204,0.242,0.338,0.461,0.3c0.219-0.038,0.367-0.235,0.332-0.439
		c-0.037-0.205-0.243-0.339-0.462-0.3C8.703,11.828,8.555,12.025,8.591,12.229"/>
	<path fill="#C9453A" d="M9.754,13.754c0.065,0.367,0.437,0.609,0.831,0.54c0.394-0.069,0.66-0.423,0.596-0.791
		c-0.065-0.367-0.437-0.609-0.83-0.54C9.957,13.032,9.69,13.386,9.754,13.754"/>
	<path fill="#C9453A" d="M10.124,11.034c0.08,0.455,0.54,0.754,1.028,0.668c0.487-0.086,0.818-0.524,0.738-0.979
		c-0.08-0.455-0.541-0.754-1.028-0.668C10.374,10.14,10.043,10.579,10.124,11.034"/>
	<path fill="#C9453A" d="M7.304,9.527c0.084,0.552,0.631,0.926,1.222,0.837c0.591-0.09,1.003-0.61,0.919-1.162
		S8.815,8.276,8.224,8.366C7.632,8.455,7.22,8.975,7.304,9.527"/>
	<path fill="#C9453A" d="M8.465,6.173c0.099,0.654,0.748,1.098,1.448,0.992c0.701-0.106,1.188-0.722,1.089-1.376
		c-0.1-0.654-0.748-1.098-1.448-0.991C8.854,4.904,8.367,5.52,8.465,6.173"/>
</g>
</svg>
