<?xml version="1.0" encoding="utf-8"?>
<!-- Generator: Adobe Illustrator 14.0.0, SVG Export Plug-In . SVG Version: 6.00 Build 43363)  -->
<!DOCTYPE svg PUBLIC "-//W3C//DTD SVG 1.1//EN" "http://www.w3.org/Graphics/SVG/1.1/DTD/svg11.dtd">
<svg version="1.1" id="Layer_1" xmlns="http://www.w3.org/2000/svg" xmlns:xlink="http://www.w3.org/1999/xlink" x="0px" y="0px"
	 width="320px" height="500px" viewBox="0 0 320 500" enable-background="new 0 0 320 500" xml:space="preserve">
<g>
	<polygon fill="#231F20" points="98.078,232.854 86.088,279.708 75.914,279.708 63.923,232.854 74.843,232.854 81.023,263.595 
		87.202,232.854 	"/>
	<rect x="103.607" y="232.96" fill="#231F20" width="10.457" height="46.826"/>
	<path fill="#231F20" d="M151.472,273.979c0,3.871-1.967,5.806-5.901,5.806h-17.893c-3.932,0-5.901-1.937-5.901-5.806v-10.088
		h10.178v7.897h9.338v-7.431l-16.309-9.623c-2.137-1.271-3.208-2.975-3.208-5.109v-10.969c0-3.87,1.999-5.807,5.995-5.807h17.708
		c3.933,0,5.9,1.937,5.9,5.807v9.437h-10.085v-7.248h-9.338v6.782l16.264,9.523c2.171,1.24,3.254,2.977,3.254,5.205v11.623H151.472z
		"/>
	<g>
		<path fill="#231F20" d="M151.787,189.216c11.068,0,29.117-6.247,41.564-13.573c13.318-7.833,28.812-22.325,30.578-25.146
			c-12.218-19.417-21.181-23.191-26.638-24.261c-1.424-0.283-3.374-0.511-5.795-0.511c-6.858,0-17.488,1.841-30.585,9.6
			c-17.73,10.505-15.077,25.387-15.077,25.387l3.759,28.411C150.292,189.188,151.024,189.216,151.787,189.216z"/>
		<path fill="#231F20" d="M151.787,191.281c-0.829,0-1.628-0.034-2.372-0.1l-0.985-0.089c-4.202,7.274-14.148,24.71-13.634,26.052
			c0.59,1.533,13.7,4.412,15.438,4.329c1.74-0.085,18.042-1.054,24.071-16.93c3.727-9.817,6.555-17.043,8.172-21.138
			C171.463,188.141,159.667,191.281,151.787,191.281z"/>
	</g>
</g>
<g>
	<path fill="#231F20" d="M102.322,219.88c0.349,3.333,3.526,5.729,7.098,5.354c3.568-0.371,6.177-3.376,5.833-6.707
		c-0.352-3.332-3.529-5.729-7.097-5.355C104.585,213.545,101.974,216.548,102.322,219.88"/>
	<path fill="#231F20" d="M190.229,270.054c0,3.781-1.367,6.427-4.093,7.929c-1.981,1.078-4.985,1.612-9.012,1.612
		c-0.933,0-2.238-0.03-3.925-0.09c-1.688-0.062-2.91-0.091-3.649-0.091V296.5h-10.64v-63.645h10.64v1.705
		c2.476-0.367,4.955-0.754,7.438-1.152c3.126-0.492,5.604-0.739,7.43-0.739c3.874,0,5.812,1.891,5.812,5.671v31.714H190.229z
		 M179.538,267.148v-25.493l-9.993,0.185v28.814h6.602C178.407,270.654,179.538,269.486,179.538,267.148"/>
	<path fill="#231F20" d="M228.098,273.975c0,3.877-1.996,5.812-5.992,5.812H203.75c-3.999,0-5.992-1.936-5.992-5.812v-35.315
		c0-3.87,1.993-5.807,5.992-5.807h18.354c3.998,0,5.994,1.938,5.994,5.807V255.9l-2.93,2.929h-17.236v13.151h9.991v-7.807H228.1
		L228.098,273.975L228.098,273.975z M217.922,240.661h-9.99v11.247h9.99V240.661z"/>
	<path fill="#231F20" d="M256.074,279.786H244.27c-3.938,0-5.899-1.935-5.899-5.806v-32.064h-5.021v-9.062h5.021v-13.819h10.595
		v13.819h6.828v9.062h-6.828v28.811h7.112v9.062L256.074,279.786L256.074,279.786z"/>
	<path fill="#231F20" d="M122.21,156.684c0.165,1.066,1.218,1.79,2.363,1.616c1.141-0.174,1.937-1.178,1.775-2.245
		c-0.161-1.067-1.218-1.79-2.362-1.617C122.844,154.613,122.049,155.617,122.21,156.684"/>
	<path fill="#231F20" d="M127.221,211.102c0.096,1.073,1.104,1.86,2.256,1.757c1.152-0.102,2.008-1.058,1.911-2.133
		c-0.097-1.072-1.106-1.86-2.259-1.755C127.978,209.071,127.122,210.027,127.221,211.102"/>
	<path fill="#231F20" d="M106.913,185.697c0.298,1.708,2.024,2.83,3.854,2.509c1.827-0.321,3.067-1.968,2.77-3.676
		c-0.305-1.705-2.029-2.83-3.859-2.504C107.848,182.344,106.608,183.992,106.913,185.697"/>
	<path fill="#231F20" d="M116.632,198.439c0.542,3.069,3.649,5.092,6.942,4.511c3.292-0.578,5.516-3.535,4.979-6.609
		c-0.542-3.07-3.647-5.089-6.934-4.509C118.324,192.409,116.094,195.369,116.632,198.439"/>
	<path fill="#231F20" d="M119.714,175.714c0.668,3.803,4.515,6.304,8.588,5.585c4.075-0.718,6.837-4.382,6.168-8.184
		c-0.668-3.803-4.518-6.303-8.591-5.586C121.806,168.245,119.044,171.911,119.714,175.714"/>
	<path fill="#231F20" d="M96.157,163.123c0.701,4.611,5.276,7.741,10.212,6.994c4.941-0.751,8.381-5.097,7.683-9.707
		c-0.7-4.608-5.272-7.741-10.21-6.99C98.901,154.167,95.458,158.51,96.157,163.123"/>
	<path fill="#231F20" d="M105.861,135.102c0.825,5.463,6.248,9.171,12.1,8.284c5.854-0.885,9.93-6.03,9.101-11.497
		c-0.83-5.461-6.248-9.17-12.101-8.282C109.108,124.492,105.035,129.638,105.861,135.102"/>
</g>
</svg>
