<?xml version="1.0" encoding="utf-8"?>
<!-- Generator: Adobe Illustrator 14.0.0, SVG Export Plug-In . SVG Version: 6.00 Build 43363)  -->
<!DOCTYPE svg PUBLIC "-//W3C//DTD SVG 1.1//EN" "http://www.w3.org/Graphics/SVG/1.1/DTD/svg11.dtd">
<svg version="1.1" id="Layer_1" xmlns="http://www.w3.org/2000/svg" xmlns:xlink="http://www.w3.org/1999/xlink" x="0px" y="0px"
	 width="320px" height="500px" viewBox="0 0 320 500" enable-background="new 0 0 320 500" xml:space="preserve">
<g>
	<polygon fill="#FFFFFF" points="84.011,278.062 69.296,335.562 56.811,335.562 42.096,278.062 55.497,278.062 63.082,315.788 
		70.664,278.062 	"/>
	<rect x="90.796" y="278.193" fill="#FFFFFF" width="12.833" height="57.464"/>
	<path fill="#FFFFFF" d="M149.535,328.531c0,4.752-2.415,7.126-7.242,7.126h-21.958c-4.826,0-7.242-2.374-7.242-7.126v-12.377h12.49
		v9.692h11.46v-9.12l-20.014-11.806c-2.623-1.56-3.937-3.65-3.937-6.271v-13.463c0-4.748,2.453-7.125,7.356-7.125h21.731
		c4.826,0,7.241,2.377,7.241,7.125v11.579h-12.377v-8.894h-11.46v8.324l19.958,11.688c2.663,1.523,3.993,3.652,3.993,6.389V328.531z
		"/>
	<path fill="#FFF200" d="M89.219,262.141c0.428,4.09,4.327,7.03,8.709,6.57c4.379-0.456,7.582-4.142,7.157-8.231
		c-0.431-4.09-4.33-7.03-8.709-6.572C91.997,254.366,88.792,258.053,89.219,262.141"/>
	<g>
		<path fill="#FFFFFF" d="M149.922,224.511c13.582,0,35.73-7.666,51.007-16.657c16.347-9.613,35.358-27.397,37.526-30.859
			c-14.994-23.829-25.993-28.46-32.689-29.773c-1.748-0.345-4.141-0.626-7.114-0.626c-8.416,0-21.459,2.259-37.531,11.781
			c-21.756,12.89-18.501,31.153-18.501,31.153l4.614,34.866C148.087,224.475,148.986,224.511,149.922,224.511z"/>
		<path fill="#FFFFFF" d="M149.922,227.046c-1.017,0-1.999-0.043-2.912-0.123l-1.208-0.109c-5.158,8.926-17.364,30.323-16.733,31.97
			c0.723,1.882,16.812,5.414,18.945,5.312c2.135-0.105,22.14-1.294,29.539-20.777c4.573-12.047,8.042-20.914,10.028-25.939
			C174.067,223.19,159.592,227.046,149.922,227.046z"/>
	</g>
	<path fill="#FFF200" d="M197.097,323.714c0,4.64-1.678,7.887-5.023,9.73c-2.432,1.324-6.119,1.98-11.061,1.98
		c-1.141,0-2.746-0.038-4.815-0.111c-2.074-0.078-3.571-0.114-4.479-0.114v20.969h-13.06v-78.106h13.06v2.092
		c3.037-0.45,6.082-0.925,9.128-1.415c3.837-0.603,6.877-0.906,9.119-0.906c4.753,0,7.132,2.321,7.132,6.96V323.714z
		 M183.979,320.149v-31.286l-12.262,0.228v35.359h8.097C182.591,324.45,183.979,323.02,183.979,320.149"/>
	<path fill="#FFF200" d="M243.569,328.526c0,4.755-2.448,7.131-7.355,7.131H213.69c-4.907,0-7.354-2.376-7.354-7.131v-43.34
		c0-4.748,2.447-7.125,7.354-7.125h22.523c4.907,0,7.355,2.377,7.355,7.125v21.158l-3.594,3.594h-21.153v16.14h12.26v-9.58h12.487
		V328.526z M231.082,287.642h-12.26v13.802h12.26V287.642z"/>
	<path fill="#FFF200" d="M277.903,335.657h-14.486c-4.832,0-7.241-2.374-7.241-7.126v-39.351h-6.16v-11.119h6.16v-16.96h13.002
		v16.96h8.379v11.119h-8.379v35.356h8.726V335.657z"/>
	<path fill="#FFF200" d="M113.625,184.587c0.203,1.309,1.495,2.196,2.9,1.985c1.401-0.214,2.377-1.445,2.179-2.756
		c-0.199-1.308-1.495-2.196-2.899-1.984C114.404,182.047,113.427,183.278,113.625,184.587"/>
	<path fill="#FFF200" d="M119.774,251.368c0.117,1.318,1.356,2.283,2.77,2.158c1.414-0.128,2.464-1.299,2.345-2.619
		c-0.119-1.315-1.359-2.282-2.773-2.155C120.702,248.877,119.653,250.05,119.774,251.368"/>
	<path fill="#FFF200" d="M94.852,220.192c0.366,2.094,2.484,3.472,4.73,3.078c2.243-0.394,3.764-2.415,3.399-4.51
		c-0.373-2.094-2.489-3.474-4.735-3.075C96,216.076,94.479,218.1,94.852,220.192"/>
	<path fill="#FFF200" d="M106.78,235.829c0.666,3.766,4.479,6.248,8.519,5.535c4.04-0.709,6.77-4.338,6.11-8.111
		c-0.665-3.767-4.476-6.245-8.51-5.533C108.856,228.429,106.119,232.062,106.78,235.829"/>
	<path fill="#FFF200" d="M110.562,207.941c0.821,4.666,5.541,7.737,10.539,6.854c5.001-0.881,8.39-5.377,7.57-10.043
		s-5.544-7.734-10.543-6.855C113.13,198.775,109.74,203.275,110.562,207.941"/>
	<path fill="#FFF200" d="M81.653,192.489c0.861,5.659,6.474,9.5,12.533,8.583c6.064-0.922,10.284-6.255,9.428-11.913
		c-0.858-5.655-6.47-9.5-12.53-8.578C85.021,181.498,80.796,186.828,81.653,192.489"/>
	<path fill="#FFF200" d="M93.562,158.102c1.013,6.705,7.667,11.256,14.849,10.166c7.184-1.088,12.185-7.402,11.168-14.111
		c-1.018-6.702-7.667-11.253-14.85-10.163C97.547,145.08,92.548,151.396,93.562,158.102"/>
</g>
</svg>
