<?xml version="1.0" encoding="utf-8"?>
<!-- Generator: Adobe Illustrator 14.0.0, SVG Export Plug-In . SVG Version: 6.00 Build 43363)  -->
<!DOCTYPE svg PUBLIC "-//W3C//DTD SVG 1.1//EN" "http://www.w3.org/Graphics/SVG/1.1/DTD/svg11.dtd">
<svg version="1.1" id="Layer_1" xmlns="http://www.w3.org/2000/svg" xmlns:xlink="http://www.w3.org/1999/xlink" x="0px" y="0px"
	 width="320px" height="500px" viewBox="0 0 320 500" enable-background="new 0 0 320 500" xml:space="preserve">
<g>
	<polygon fill="#FBD528" points="79.328,239.777 63.708,300.819 50.453,300.819 34.832,239.777 49.058,239.777 57.11,279.826 
		65.159,239.777 	"/>
	<rect x="86.531" y="239.916" fill="#FBD528" width="13.624" height="61.005"/>
	<path fill="#FBD528" d="M148.889,293.356c0,5.043-2.563,7.564-7.688,7.564H117.89c-5.123,0-7.688-2.521-7.688-7.564v-13.141h13.26
		v10.289h12.166v-9.681l-21.247-12.535c-2.784-1.655-4.18-3.875-4.18-6.657V247.34c0-5.041,2.604-7.565,7.81-7.565h23.069
		c5.124,0,7.687,2.524,7.687,7.565v12.294h-13.139v-9.443h-12.166v8.836l21.188,12.409c2.828,1.616,4.239,3.876,4.239,6.782
		L148.889,293.356L148.889,293.356z"/>
	<g>
		<path fill="#FBD528" d="M149.3,182.927c14.419,0,37.932-8.139,54.15-17.683c17.352-10.205,37.536-29.085,39.837-32.76
			c-15.917-25.297-27.594-30.214-34.703-31.607c-1.855-0.368-4.396-0.665-7.55-0.665c-8.936,0-22.783,2.398-39.846,12.506
			c-23.096,13.686-19.64,33.074-19.64,33.074l4.897,37.013C147.352,182.89,148.306,182.927,149.3,182.927z"/>
		<path fill="#FBD528" d="M149.3,185.617c-1.08,0-2.122-0.045-3.091-0.13l-1.283-0.116c-5.475,9.476-18.433,32.192-17.763,33.94
			c0.768,1.997,17.848,5.748,20.112,5.639c2.267-0.11,23.504-1.373,31.358-22.056c4.855-12.79,8.54-22.203,10.646-27.538
			C174.933,181.526,159.566,185.617,149.3,185.617z"/>
	</g>
</g>
<g>
	<path fill="#FFFFFF" d="M84.857,222.875c0.455,4.342,4.594,7.464,9.247,6.976c4.648-0.484,8.048-4.399,7.598-8.738
		c-0.458-4.341-4.597-7.464-9.246-6.977C87.806,214.622,84.404,218.534,84.857,222.875"/>
	<path fill="#FFFFFF" d="M199.382,288.241c0,4.926-1.782,8.373-5.332,10.329c-2.583,1.405-6.496,2.102-11.742,2.102
		c-1.213,0-2.916-0.04-5.113-0.118c-2.201-0.082-3.79-0.118-4.754-0.118v22.259h-13.864v-82.917h13.864v2.221
		c3.224-0.478,6.456-0.983,9.69-1.501c4.072-0.641,7.302-0.963,9.68-0.963c5.046,0,7.571,2.464,7.571,7.389V288.241L199.382,288.241
		z M185.454,284.456v-33.212l-13.018,0.241v37.538h8.598C183.981,289.023,185.454,287.504,185.454,284.456"/>
	<path fill="#FFFFFF" d="M248.716,293.35c0,5.048-2.599,7.571-7.807,7.571h-23.913c-5.21,0-7.807-2.523-7.807-7.571v-46.01
		c0-5.041,2.597-7.565,7.807-7.565h23.912c5.209,0,7.808,2.524,7.808,7.565v22.462l-3.815,3.815h-22.456v17.134h13.014v-10.17
		h13.258V293.35L248.716,293.35z M235.46,249.948h-13.015V264.6h13.015V249.948z"/>
	<path fill="#FFFFFF" d="M285.165,300.921h-15.378c-5.13,0-7.688-2.521-7.688-7.564v-41.775h-6.539v-11.807h6.539v-18.003h13.804
		v18.003h8.896v11.807h-8.896v37.533h9.266v11.807H285.165z"/>
	<path fill="#FFFFFF" d="M110.767,140.544c0.215,1.389,1.587,2.332,3.079,2.106c1.487-0.227,2.523-1.535,2.312-2.925
		c-0.21-1.39-1.586-2.332-3.077-2.106C111.594,137.846,110.557,139.154,110.767,140.544"/>
	<path fill="#FFFFFF" d="M117.295,211.439c0.125,1.398,1.439,2.424,2.94,2.289c1.501-0.133,2.616-1.379,2.489-2.779
		c-0.126-1.396-1.442-2.423-2.943-2.287C118.281,208.793,117.167,210.039,117.295,211.439"/>
	<path fill="#FFFFFF" d="M90.838,178.342c0.388,2.224,2.637,3.686,5.021,3.268c2.38-0.418,3.996-2.564,3.608-4.789
		c-0.397-2.222-2.643-3.687-5.027-3.263C92.056,173.973,90.441,176.121,90.838,178.342"/>
	<path fill="#FFFFFF" d="M103.5,194.942c0.707,3.999,4.754,6.634,9.044,5.877c4.289-0.753,7.186-4.606,6.486-8.611
		c-0.707-4-4.751-6.63-9.034-5.874C105.704,187.086,102.799,190.943,103.5,194.942"/>
	<path fill="#FFFFFF" d="M107.516,165.336c0.871,4.954,5.882,8.213,11.188,7.276c5.309-0.935,8.908-5.708,8.036-10.662
		c-0.87-4.954-5.885-8.211-11.192-7.277C110.241,155.606,106.643,160.382,107.516,165.336"/>
	<path fill="#FFFFFF" d="M76.826,148.933c0.913,6.007,6.873,10.085,13.305,9.111c6.437-0.979,10.918-6.64,10.009-12.646
		c-0.912-6.004-6.868-10.085-13.302-9.106C80.401,137.265,75.915,142.923,76.826,148.933"/>
	<path fill="#FFFFFF" d="M89.468,112.427c1.075,7.117,8.14,11.948,15.764,10.792c7.627-1.154,12.936-7.856,11.856-14.98
		c-1.081-7.115-8.14-11.946-15.765-10.789C93.698,98.604,88.392,105.308,89.468,112.427"/>
</g>
</svg>
