<?xml version="1.0" encoding="utf-8"?>
<!-- Generator: Adobe Illustrator 14.0.0, SVG Export Plug-In . SVG Version: 6.00 Build 43363)  -->
<!DOCTYPE svg PUBLIC "-//W3C//DTD SVG 1.1//EN" "http://www.w3.org/Graphics/SVG/1.1/DTD/svg11.dtd">
<svg version="1.1" id="Layer_1" xmlns="http://www.w3.org/2000/svg" xmlns:xlink="http://www.w3.org/1999/xlink" x="0px" y="0px"
	 width="200px" height="200px" viewBox="0 0 200 200" enable-background="new 0 0 200 200" xml:space="preserve">
<g>
	<polygon fill="#FFFFFF" points="54.927,115.251 46.199,149.357 38.793,149.357 30.065,115.251 38.014,115.251 42.513,137.629 
		47.01,115.251 	"/>
	<rect x="58.952" y="115.329" fill="#FFFFFF" width="7.612" height="34.085"/>
	<path fill="#FFFFFF" d="M93.792,145.188c0,2.818-1.433,4.227-4.295,4.227H76.472c-2.862,0-4.295-1.408-4.295-4.227v-7.342h7.409
		v5.749h6.797v-5.409l-11.871-7.003c-1.556-0.925-2.335-2.165-2.335-3.72v-7.985c0-2.816,1.455-4.227,4.363-4.227h12.89
		c2.862,0,4.295,1.41,4.295,4.227v6.868h-7.342v-5.275h-6.797v4.938l11.838,6.933c1.58,0.903,2.369,2.166,2.369,3.789V145.188z"/>
	<path fill="#FFF200" d="M58.016,105.808c0.254,2.426,2.566,4.17,5.166,3.897c2.598-0.271,4.498-2.457,4.245-4.883
		c-0.255-2.426-2.568-4.17-5.166-3.898C59.664,101.196,57.763,103.383,58.016,105.808"/>
	<g>
		<path fill="#FFFFFF" d="M94.022,83.487c8.056,0,21.193-4.547,30.255-9.88c9.696-5.702,20.973-16.251,22.259-18.305
			c-8.894-14.134-15.418-16.881-19.39-17.66c-1.037-0.204-2.456-0.371-4.22-0.371c-4.992,0-12.729,1.34-22.262,6.988
			C87.76,51.905,89.691,62.738,89.691,62.738l2.737,20.681C92.934,83.466,93.467,83.487,94.022,83.487z"/>
		<path fill="#FFFFFF" d="M94.022,84.991c-0.603,0-1.186-0.025-1.728-0.073l-0.717-0.064c-3.06,5.294-10.299,17.986-9.925,18.963
			c0.429,1.116,9.972,3.211,11.237,3.15c1.267-0.062,13.132-0.768,17.521-12.324c2.713-7.146,4.771-12.405,5.948-15.386
			C108.344,82.704,99.758,84.991,94.022,84.991z"/>
	</g>
	<path fill="#FFF200" d="M122.004,142.33c0,2.752-0.995,4.678-2.979,5.771c-1.442,0.785-3.63,1.175-6.561,1.175
		c-0.677,0-1.629-0.022-2.856-0.066c-1.23-0.046-2.118-0.067-2.657-0.067v12.438h-7.746v-46.329h7.746v1.241
		c1.802-0.268,3.607-0.549,5.414-0.84c2.276-0.357,4.079-0.537,5.409-0.537c2.819,0,4.23,1.377,4.23,4.128V142.33z M114.224,140.216
		v-18.558l-7.273,0.135v20.974h4.803C113.399,142.767,114.224,141.918,114.224,140.216"/>
	<path fill="#FFF200" d="M149.569,145.185c0,2.82-1.452,4.229-4.363,4.229h-13.359c-2.911,0-4.362-1.409-4.362-4.229v-25.707
		c0-2.816,1.451-4.227,4.362-4.227h13.359c2.911,0,4.363,1.41,4.363,4.227v12.55l-2.132,2.132h-12.547v9.573h7.271v-5.683h7.407
		V145.185z M142.162,120.934h-7.271v8.187h7.271V120.934z"/>
	<path fill="#FFF200" d="M169.935,149.414h-8.593c-2.866,0-4.295-1.408-4.295-4.227v-23.341h-3.654v-6.596h3.654v-10.06h7.712v10.06
		h4.97v6.596h-4.97v20.972h5.176V149.414z"/>
	<path fill="#FFF200" d="M72.493,59.807c0.12,0.776,0.887,1.303,1.72,1.178c0.831-0.127,1.41-0.857,1.292-1.635
		c-0.118-0.775-0.887-1.303-1.72-1.177C72.955,58.3,72.375,59.03,72.493,59.807"/>
	<path fill="#FFF200" d="M76.14,99.418c0.069,0.782,0.805,1.354,1.643,1.28c0.839-0.076,1.462-0.771,1.391-1.554
		c-0.07-0.78-0.806-1.354-1.645-1.278C76.69,97.94,76.068,98.636,76.14,99.418"/>
	<path fill="#FFF200" d="M61.357,80.926c0.217,1.242,1.473,2.06,2.806,1.826c1.33-0.233,2.232-1.433,2.016-2.675
		c-0.221-1.242-1.476-2.061-2.809-1.824C62.039,78.484,61.136,79.685,61.357,80.926"/>
	<path fill="#FFF200" d="M68.433,90.201c0.395,2.233,2.657,3.706,5.053,3.283c2.396-0.421,4.016-2.573,3.624-4.812
		c-0.395-2.234-2.655-3.704-5.048-3.282C69.664,85.812,68.04,87.967,68.433,90.201"/>
	<path fill="#FFF200" d="M70.676,73.659c0.487,2.768,3.287,4.59,6.251,4.065c2.966-0.522,4.977-3.189,4.49-5.957
		s-3.289-4.588-6.253-4.066C72.199,68.223,70.188,70.892,70.676,73.659"/>
	<path fill="#FFF200" d="M53.528,64.494c0.511,3.356,3.84,5.635,7.434,5.091c3.597-0.547,6.1-3.71,5.592-7.066
		c-0.509-3.354-3.838-5.635-7.432-5.088C55.526,57.975,53.02,61.136,53.528,64.494"/>
	<path fill="#FFF200" d="M60.592,44.097c0.601,3.978,4.548,6.677,8.808,6.03c4.261-0.646,7.228-4.391,6.625-8.37
		c-0.604-3.976-4.547-6.675-8.808-6.028C62.956,36.373,59.991,40.119,60.592,44.097"/>
</g>
</svg>
