<?xml version="1.0" encoding="utf-8"?>
<!-- Generator: Adobe Illustrator 14.0.0, SVG Export Plug-In . SVG Version: 6.00 Build 43363)  -->
<!DOCTYPE svg PUBLIC "-//W3C//DTD SVG 1.1//EN" "http://www.w3.org/Graphics/SVG/1.1/DTD/svg11.dtd">
<svg version="1.1" id="Layer_1" xmlns="http://www.w3.org/2000/svg" xmlns:xlink="http://www.w3.org/1999/xlink" x="0px" y="0px"
	 width="50px" height="50px" viewBox="0 0 50 50" enable-background="new 0 0 50 50" xml:space="preserve">
<g>
	<polygon fill="#C9453A" points="13.551,29.343 11.345,37.966 9.473,37.966 7.267,29.343 9.276,29.343 10.413,35 11.55,29.343 	"/>
	<rect x="14.568" y="29.364" fill="#C9453A" width="1.924" height="8.614"/>
	<path fill="#C9453A" d="M23.376,36.911c0,0.712-0.363,1.067-1.086,1.067h-3.292c-0.724,0-1.086-0.355-1.086-1.067v-1.856h1.873
		v1.453h1.719v-1.366l-3.001-1.771c-0.394-0.234-0.59-0.548-0.59-0.941v-2.019c0-0.711,0.368-1.068,1.103-1.068h3.259
		c0.723,0,1.085,0.357,1.085,1.068v1.736h-1.855v-1.334h-1.719v1.248l2.993,1.754c0.399,0.229,0.599,0.547,0.599,0.958V36.911
		L23.376,36.911z"/>
	<g>
		<path fill="#C9453A" d="M23.434,21.313c2.037,0,5.356-1.149,7.648-2.497c2.45-1.441,5.301-4.108,5.626-4.626
			c-2.248-3.573-3.896-4.268-4.901-4.465c-0.263-0.052-0.621-0.094-1.065-0.094c-1.263,0-3.219,0.339-5.628,1.767
			c-3.262,1.933-2.773,4.671-2.773,4.671l0.691,5.228C23.158,21.309,23.293,21.313,23.434,21.313z"/>
		<path fill="#C9453A" d="M23.434,21.694c-0.152,0-0.299-0.006-0.437-0.019l-0.181-0.016c-0.773,1.338-2.604,4.547-2.509,4.794
			c0.109,0.282,2.521,0.812,2.841,0.796c0.32-0.016,3.32-0.192,4.429-3.115c0.687-1.806,1.207-3.136,1.504-3.89
			C27.054,21.115,24.883,21.694,23.434,21.694z"/>
	</g>
</g>
<g>
	<path fill="#C9453A" d="M14.332,26.955c0.064,0.615,0.648,1.056,1.306,0.986c0.657-0.068,1.137-0.621,1.073-1.233
		c-0.064-0.614-0.649-1.055-1.306-0.986C14.749,25.791,14.268,26.344,14.332,26.955"/>
	<path fill="#C9453A" d="M30.507,36.188c0,0.696-0.25,1.184-0.753,1.46c-0.364,0.198-0.916,0.297-1.658,0.297
		c-0.171,0-0.411-0.006-0.722-0.016c-0.312-0.013-0.536-0.017-0.672-0.017v3.142h-1.958V29.343h1.958v0.313
		c0.455-0.067,0.911-0.138,1.368-0.211c0.574-0.09,1.031-0.136,1.368-0.136c0.712,0,1.068,0.347,1.068,1.043V36.188L30.507,36.188z
		 M28.54,35.653v-4.69l-1.84,0.034v5.302h1.216C28.331,36.299,28.54,36.085,28.54,35.653"/>
	<path fill="#C9453A" d="M37.476,36.91c0,0.713-0.367,1.068-1.103,1.068h-3.378c-0.736,0-1.103-0.355-1.103-1.068v-6.499
		c0-0.711,0.366-1.068,1.103-1.068h3.377c0.736,0,1.104,0.357,1.104,1.068v3.173l-0.54,0.54h-3.171v2.42h1.838v-1.438h1.873V36.91
		L37.476,36.91z M35.603,30.78h-1.838v2.068h1.838V30.78z"/>
	<path fill="#C9453A" d="M42.624,37.979H40.45c-0.724,0-1.085-0.355-1.085-1.067v-5.9h-0.924v-1.668h0.924v-2.542h1.949v2.542h1.257
		v1.668h-1.257v5.302h1.31V37.979L42.624,37.979z"/>
	<path fill="#C9453A" d="M17.991,15.328c0.03,0.196,0.224,0.33,0.435,0.298c0.209-0.032,0.356-0.217,0.327-0.414
		c-0.03-0.196-0.225-0.329-0.435-0.297C18.108,14.947,17.962,15.132,17.991,15.328"/>
	<path fill="#C9453A" d="M18.914,25.34c0.018,0.198,0.203,0.343,0.415,0.324c0.212-0.019,0.369-0.195,0.352-0.393
		c-0.018-0.196-0.204-0.341-0.416-0.322C19.052,24.968,18.895,25.143,18.914,25.34"/>
	<path fill="#C9453A" d="M15.176,20.667c0.055,0.313,0.373,0.52,0.709,0.461c0.336-0.059,0.565-0.362,0.51-0.676
		c-0.056-0.314-0.374-0.521-0.71-0.461C15.349,20.049,15.12,20.353,15.176,20.667"/>
	<path fill="#C9453A" d="M16.965,23.011c0.1,0.564,0.672,0.937,1.278,0.83c0.606-0.106,1.015-0.65,0.916-1.216
		c-0.1-0.564-0.671-0.936-1.275-0.83C17.276,21.902,16.866,22.446,16.965,23.011"/>
	<path fill="#C9453A" d="M17.532,18.83c0.123,0.699,0.831,1.16,1.581,1.027c0.749-0.132,1.257-0.806,1.135-1.506
		c-0.123-0.7-0.832-1.16-1.581-1.028C17.917,17.456,17.408,18.13,17.532,18.83"/>
	<path fill="#C9453A" d="M13.198,16.513c0.129,0.849,0.97,1.424,1.879,1.287c0.909-0.138,1.542-0.938,1.414-1.786
		c-0.128-0.849-0.97-1.425-1.879-1.287C13.702,14.865,13.068,15.664,13.198,16.513"/>
	<path fill="#C9453A" d="M14.983,11.356c0.152,1.006,1.15,1.688,2.227,1.524c1.077-0.163,1.827-1.109,1.675-2.115
		c-0.153-1.005-1.15-1.688-2.227-1.524C15.58,9.405,14.831,10.351,14.983,11.356"/>
</g>
</svg>
